<svg width="22" height="19" viewBox="0 0 22 19" fill="none" xmlns="http://www.w3.org/2000/svg">
<path fill-rule="evenodd" clip-rule="evenodd" d="M11 5.77643C10.1439 4.16734 7.8455 1 5.37989 1C2.28307 1 -5.0343 7.77195 10.9863 17.6498V17.6667C10.9909 17.6639 10.9954 17.661 11 17.6582C11.0046 17.661 11.0091 17.6639 11.0137 17.6667V17.6498C27.0343 7.77195 19.7169 1 16.6201 1C14.1545 1 11.8561 4.16734 11 5.77643Z" fill="#8354FF"/>
<path d="M11 5.77643L10.5586 6.01128C10.6454 6.17446 10.8152 6.27643 11 6.27643C11.1848 6.27643 11.3546 6.17446 11.4414 6.01128L11 5.77643ZM10.9863 17.6498H11.4863C11.4863 17.4763 11.3964 17.3152 11.2487 17.2242L10.9863 17.6498ZM10.9863 17.6667H10.4863C10.4863 17.8478 10.5843 18.0148 10.7425 18.1032C10.9006 18.1915 11.0942 18.1874 11.2485 18.0924L10.9863 17.6667ZM11 17.6582L11.2623 17.2326C11.1015 17.1335 10.8985 17.1335 10.7377 17.2326L11 17.6582ZM11.0137 17.6667L10.7515 18.0924C10.9058 18.1874 11.0994 18.1915 11.2575 18.1032C11.4157 18.0148 11.5137 17.8478 11.5137 17.6667H11.0137ZM11.0137 17.6498L10.7513 17.2242C10.6036 17.3152 10.5137 17.4763 10.5137 17.6498H11.0137ZM5.37989 1.5C6.40761 1.5 7.47573 2.17106 8.43939 3.1378C9.38755 4.08898 10.1486 5.24063 10.5586 6.01128L11.4414 5.54158C10.9953 4.70314 10.1791 3.46658 9.14763 2.43182C8.13167 1.41261 6.81779 0.5 5.37989 0.5V1.5ZM11.2487 17.2242C3.26827 12.3037 1.32075 8.28516 1.51273 5.65713C1.60888 4.34086 2.24082 3.29995 3.03221 2.58301C3.83728 1.85369 4.76072 1.5 5.37989 1.5V0.5C4.45065 0.5 3.29811 0.992807 2.36083 1.8419C1.40987 2.70339 0.633105 3.97283 0.515389 5.58428C0.279628 8.81169 2.68373 13.1181 10.7239 18.0754L11.2487 17.2242ZM10.4863 17.6498V17.6667H11.4863V17.6498H10.4863ZM11.2485 18.0924C11.2531 18.0896 11.2578 18.0866 11.2623 18.0839L10.7377 17.2326C10.733 17.2354 10.7286 17.2382 10.7242 17.2409L11.2485 18.0924ZM11.2758 17.2409C11.2713 17.2381 11.2668 17.2354 11.2623 17.2326L10.7377 18.0839C10.7423 18.0867 10.7469 18.0896 10.7515 18.0924L11.2758 17.2409ZM10.5137 17.6498V17.6667H11.5137V17.6498H10.5137ZM11.2761 18.0754C19.3163 13.1181 21.7204 8.81169 21.4846 5.58428C21.3669 3.97283 20.5901 2.70339 19.6392 1.8419C18.7019 0.992807 17.5493 0.5 16.6201 0.5V1.5C17.2393 1.5 18.1627 1.85369 18.9678 2.58301C19.7592 3.29995 20.3911 4.34086 20.4873 5.65713C20.6792 8.28516 18.7317 12.3037 10.7513 17.2242L11.2761 18.0754ZM16.6201 0.5C15.1822 0.5 13.8683 1.41261 12.8524 2.43182C11.8209 3.46658 11.0047 4.70314 10.5586 5.54158L11.4414 6.01128C11.8514 5.24063 12.6124 4.08898 13.5606 3.1378C14.5243 2.17106 15.5924 1.5 16.6201 1.5V0.5Z" fill="#8354FF"/>
</svg>
