<svg width="50" height="50" viewBox="0 0 50 50" fill="none" xmlns="http://www.w3.org/2000/svg">
<path d="M4.96643 35.5H6.37143L8.91643 42.5H7.62143L7.17143 41.26H4.17143L3.72143 42.5H2.42643L4.96643 35.5ZM4.61643 40.04H6.72143L5.66643 37.155L4.61643 40.04ZM8.43523 45V43.78C8.62523 43.78 8.79689 43.735 8.95023 43.645C9.10356 43.5583 9.22523 43.4383 9.31523 43.285C9.40523 43.135 9.45023 42.9667 9.45023 42.78V37.5H10.6702V42.78C10.6702 43.1867 10.5702 43.5583 10.3702 43.895C10.1736 44.2317 9.90523 44.5 9.56523 44.7C9.22856 44.9 8.85189 45 8.43523 45ZM10.0702 36.855C9.89023 36.855 9.73856 36.7967 9.61523 36.68C9.49189 36.56 9.43023 36.41 9.43023 36.23C9.43023 36.0533 9.49189 35.905 9.61523 35.785C9.73856 35.665 9.88856 35.605 10.0652 35.605C10.2419 35.605 10.3902 35.665 10.5102 35.785C10.6336 35.905 10.6952 36.0533 10.6952 36.23C10.6952 36.41 10.6352 36.56 10.5152 36.68C10.3952 36.7967 10.2469 36.855 10.0702 36.855ZM13.5417 42.63C13.0817 42.63 12.6617 42.5117 12.2817 42.275C11.905 42.0383 11.6033 41.7217 11.3767 41.325C11.1533 40.925 11.0417 40.4833 11.0417 40C11.0417 39.6333 11.1067 39.2917 11.2367 38.975C11.3667 38.655 11.545 38.375 11.7717 38.135C12.0017 37.8917 12.2683 37.7017 12.5717 37.565C12.875 37.4283 13.1983 37.36 13.5417 37.36C14.0017 37.36 14.42 37.4783 14.7967 37.715C15.1767 37.9517 15.4783 38.27 15.7017 38.67C15.9283 39.07 16.0417 39.5133 16.0417 40C16.0417 40.3633 15.9767 40.7033 15.8467 41.02C15.7167 41.3367 15.5367 41.6167 15.3067 41.86C15.08 42.1 14.815 42.2883 14.5117 42.425C14.2117 42.5617 13.8883 42.63 13.5417 42.63ZM13.5417 41.41C13.785 41.41 14.0033 41.345 14.1967 41.215C14.39 41.085 14.5417 40.9133 14.6517 40.7C14.765 40.4867 14.8217 40.2533 14.8217 40C14.8217 39.74 14.7633 39.5033 14.6467 39.29C14.5333 39.0733 14.3783 38.9017 14.1817 38.775C13.9883 38.645 13.775 38.58 13.5417 38.58C13.3017 38.58 13.085 38.645 12.8917 38.775C12.6983 38.905 12.545 39.0783 12.4317 39.295C12.3183 39.5117 12.2617 39.7467 12.2617 40C12.2617 40.2633 12.32 40.5017 12.4367 40.715C12.5533 40.9283 12.7083 41.0983 12.9017 41.225C13.0983 41.3483 13.3117 41.41 13.5417 41.41ZM16.1048 40.65V37.5H17.3248V40.33C17.3248 40.5267 17.3731 40.7067 17.4698 40.87C17.5664 41.03 17.6948 41.1583 17.8548 41.255C18.0181 41.3483 18.1964 41.395 18.3898 41.395C18.5898 41.395 18.7698 41.3483 18.9298 41.255C19.0898 41.1583 19.2181 41.03 19.3148 40.87C19.4114 40.7067 19.4598 40.5267 19.4598 40.33V37.5H20.6798L20.6848 42.5H19.4648L19.4598 42.045C19.2864 42.225 19.0814 42.3683 18.8448 42.475C18.6081 42.5783 18.3548 42.63 18.0848 42.63C17.7214 42.63 17.3898 42.5417 17.0898 42.365C16.7898 42.185 16.5498 41.9467 16.3698 41.65C16.1931 41.35 16.1048 41.0167 16.1048 40.65ZM26.512 42.63C26.0253 42.63 25.572 42.535 25.152 42.345C24.7353 42.155 24.372 41.8933 24.062 41.56C23.752 41.2233 23.5086 40.8367 23.332 40.4C23.1586 39.96 23.072 39.49 23.072 38.99C23.072 38.4633 23.1653 37.98 23.352 37.54C23.542 37.1 23.8003 36.7183 24.127 36.395C24.4536 36.0717 24.8236 35.8217 25.237 35.645C25.6536 35.4683 26.087 35.38 26.537 35.38C27.0403 35.38 27.5286 35.4983 28.002 35.735C28.4786 35.9683 28.8986 36.33 29.262 36.82L28.172 37.405C27.9486 37.1317 27.692 36.9283 27.402 36.795C27.1153 36.6583 26.822 36.59 26.522 36.59C26.2286 36.59 25.947 36.65 25.677 36.77C25.4103 36.89 25.172 37.06 24.962 37.28C24.7553 37.4967 24.592 37.7533 24.472 38.05C24.352 38.3433 24.292 38.665 24.292 39.015C24.292 39.345 24.3503 39.6567 24.467 39.95C24.5836 40.24 24.7436 40.495 24.947 40.715C25.1536 40.9317 25.392 41.1017 25.662 41.225C25.932 41.3483 26.222 41.41 26.532 41.41C26.7386 41.41 26.9403 41.3783 27.137 41.315C27.337 41.2483 27.5236 41.1533 27.697 41.03C27.8736 40.9067 28.0303 40.7567 28.167 40.58C28.307 40.4033 28.4236 40.2033 28.517 39.98H27.242V38.915H29.952C29.9653 39.425 29.8853 39.9033 29.712 40.35C29.5386 40.7967 29.2936 41.1917 28.977 41.535C28.6603 41.8783 28.292 42.1467 27.872 42.34C27.452 42.5333 26.9986 42.63 26.512 42.63ZM30.1933 40.65V37.5H31.4133V40.33C31.4133 40.5267 31.4616 40.7067 31.5583 40.87C31.6549 41.03 31.7833 41.1583 31.9433 41.255C32.1066 41.3483 32.2849 41.395 32.4783 41.395C32.6783 41.395 32.8583 41.3483 33.0183 41.255C33.1783 41.1583 33.3066 41.03 33.4033 40.87C33.4999 40.7067 33.5483 40.5267 33.5483 40.33V37.5H34.7683L34.7733 42.5H33.5533L33.5483 42.045C33.3749 42.225 33.1699 42.3683 32.9333 42.475C32.6966 42.5783 32.4433 42.63 32.1733 42.63C31.8099 42.63 31.4783 42.5417 31.1783 42.365C30.8783 42.185 30.6383 41.9467 30.4583 41.65C30.2816 41.35 30.1933 41.0167 30.1933 40.65ZM35.3661 37.5H36.5861V42.5H35.3661V37.5ZM35.9861 36.855C35.8061 36.855 35.6545 36.7967 35.5311 36.68C35.4078 36.56 35.3461 36.41 35.3461 36.23C35.3461 36.0533 35.4078 35.905 35.5311 35.785C35.6545 35.665 35.8045 35.605 35.9811 35.605C36.1578 35.605 36.3061 35.665 36.4261 35.785C36.5495 35.905 36.6111 36.0533 36.6111 36.23C36.6111 36.41 36.5511 36.56 36.4311 36.68C36.3111 36.7967 36.1628 36.855 35.9861 36.855ZM41.0428 35H42.2628V42.5H41.0428V41.875C40.8828 42.0983 40.6812 42.28 40.4378 42.42C40.1945 42.56 39.9128 42.63 39.5928 42.63C39.2295 42.63 38.8895 42.5617 38.5728 42.425C38.2562 42.2883 37.9762 42.1 37.7328 41.86C37.4928 41.6167 37.3045 41.3367 37.1678 41.02C37.0312 40.7033 36.9628 40.3633 36.9628 40C36.9628 39.6367 37.0312 39.2967 37.1678 38.98C37.3045 38.6633 37.4928 38.385 37.7328 38.145C37.9762 37.9017 38.2562 37.7117 38.5728 37.575C38.8895 37.4383 39.2295 37.37 39.5928 37.37C39.9128 37.37 40.1945 37.44 40.4378 37.58C40.6812 37.7167 40.8828 37.8983 41.0428 38.125V35ZM39.6078 41.455C39.8678 41.455 40.0978 41.39 40.2978 41.26C40.4978 41.13 40.6545 40.955 40.7678 40.735C40.8812 40.5117 40.9378 40.2667 40.9378 40C40.9378 39.73 40.8812 39.485 40.7678 39.265C40.6545 39.0417 40.4962 38.865 40.2928 38.735C40.0928 38.605 39.8645 38.54 39.6078 38.54C39.3512 38.54 39.1162 38.6067 38.9028 38.74C38.6928 38.87 38.5245 39.045 38.3978 39.265C38.2745 39.485 38.2128 39.73 38.2128 40C38.2128 40.27 38.2762 40.515 38.4028 40.735C38.5295 40.955 38.6978 41.13 38.9078 41.26C39.1212 41.39 39.3545 41.455 39.6078 41.455ZM45.1779 42.63C44.7179 42.63 44.2979 42.5117 43.9179 42.275C43.5412 42.0383 43.2395 41.72 43.0129 41.32C42.7895 40.92 42.6779 40.4783 42.6779 39.995C42.6779 39.6317 42.7429 39.2917 42.8729 38.975C43.0029 38.655 43.1812 38.375 43.4079 38.135C43.6379 37.8917 43.9045 37.7017 44.2079 37.565C44.5112 37.4283 44.8345 37.36 45.1779 37.36C45.5679 37.36 45.9245 37.4433 46.2479 37.61C46.5745 37.7733 46.8512 37.9983 47.0779 38.285C47.3045 38.5717 47.4695 38.8983 47.5729 39.265C47.6762 39.6317 47.6995 40.015 47.6429 40.415H43.9879C44.0345 40.6017 44.1112 40.77 44.2179 40.92C44.3245 41.0667 44.4595 41.185 44.6229 41.275C44.7862 41.3617 44.9712 41.4067 45.1779 41.41C45.3912 41.4133 45.5845 41.3633 45.7579 41.26C45.9345 41.1533 46.0812 41.01 46.1979 40.83L47.4429 41.12C47.2395 41.5633 46.9362 41.9267 46.5329 42.21C46.1295 42.49 45.6779 42.63 45.1779 42.63ZM43.9479 39.5H46.4079C46.3712 39.3 46.2929 39.12 46.1729 38.96C46.0562 38.7967 45.9112 38.6667 45.7379 38.57C45.5645 38.4733 45.3779 38.425 45.1779 38.425C44.9779 38.425 44.7929 38.4733 44.6229 38.57C44.4529 38.6633 44.3079 38.7917 44.1879 38.955C44.0712 39.115 43.9912 39.2967 43.9479 39.5Z" fill="#8354FF"/>
<path fill-rule="evenodd" clip-rule="evenodd" d="M24.4348 3C25.5393 3 26.4348 3.89543 26.4348 5V13.4348C26.4348 14.5394 25.5393 15.4348 24.4348 15.4348H21.8354C20.3967 17.378 16.7306 18.1565 14.9565 18.3043C16.5467 17.6682 17.1456 16.3271 17.3024 15.4348H16C14.8954 15.4348 14 14.5394 14 13.4348V5C14 3.89543 14.8954 3 16 3H24.4348Z" fill="#8354FF"/>
<path d="M21.8354 15.4348L21.4335 15.1373C21.5278 15.0099 21.6769 14.9348 21.8354 14.9348V15.4348ZM14.9565 18.3043L14.998 18.8026C14.7513 18.8232 14.5267 18.6601 14.4699 18.4192C14.413 18.1783 14.541 17.932 14.7708 17.8401L14.9565 18.3043ZM17.3024 15.4348V14.9348C17.4501 14.9348 17.5903 15.0001 17.6853 15.1133C17.7803 15.2264 17.8204 15.3758 17.7948 15.5213L17.3024 15.4348ZM25.9348 5C25.9348 4.17157 25.2632 3.5 24.4348 3.5V2.5C25.8155 2.5 26.9348 3.61929 26.9348 5H25.9348ZM25.9348 13.4348V5H26.9348V13.4348H25.9348ZM24.4348 14.9348C25.2632 14.9348 25.9348 14.2632 25.9348 13.4348H26.9348C26.9348 14.8155 25.8155 15.9348 24.4348 15.9348V14.9348ZM21.8354 14.9348H24.4348V15.9348H21.8354V14.9348ZM22.2372 15.7323C21.4268 16.827 20.0329 17.5491 18.6852 18.0153C17.3221 18.4869 15.9203 18.7258 14.998 18.8026L14.915 17.8061C15.7668 17.7351 17.0851 17.5107 18.3582 17.0703C19.6467 16.6245 20.8053 15.9858 21.4335 15.1373L22.2372 15.7323ZM14.7708 17.8401C16.1527 17.2873 16.673 16.1275 16.8099 15.3482L17.7948 15.5213C17.6181 16.5267 16.9408 18.0492 15.1422 18.7686L14.7708 17.8401ZM16 14.9348H17.3024V15.9348H16V14.9348ZM14.5 13.4348C14.5 14.2632 15.1715 14.9348 16 14.9348V15.9348C14.6193 15.9348 13.5 14.8155 13.5 13.4348H14.5ZM14.5 5V13.4348H13.5V5H14.5ZM16 3.5C15.1715 3.5 14.5 4.17157 14.5 5H13.5C13.5 3.61929 14.6193 2.5 16 2.5V3.5ZM24.4348 3.5H16V2.5H24.4348V3.5Z" fill="#8354FF"/>
<path d="M22.4366 12.0136L21.7966 11.3776C21.5726 11.559 21.3219 11.7003 21.0446 11.8016C20.7673 11.903 20.4739 11.9536 20.1646 11.9536C19.7833 11.9536 19.4259 11.879 19.0926 11.7296C18.7593 11.5776 18.4659 11.3696 18.2126 11.1056C17.9593 10.839 17.7606 10.5296 17.6166 10.1776C17.4753 9.82563 17.4046 9.44963 17.4046 9.04963C17.4046 8.64963 17.4753 8.27496 17.6166 7.92563C17.7606 7.57363 17.9593 7.2643 18.2126 6.99763C18.4659 6.73096 18.7593 6.52296 19.0926 6.37363C19.4259 6.22163 19.7833 6.14563 20.1646 6.14563C20.5459 6.14563 20.9019 6.22163 21.2326 6.37363C21.5659 6.52296 21.8593 6.73096 22.1126 6.99763C22.3659 7.2643 22.5633 7.57363 22.7046 7.92563C22.8486 8.27496 22.9206 8.64963 22.9206 9.04963C22.9206 9.37496 22.8713 9.6843 22.7726 9.97763C22.6766 10.2683 22.5433 10.535 22.3726 10.7776L23.0246 11.4256L22.4366 12.0136ZM20.1646 11.1216C20.3513 11.1216 20.5326 11.091 20.7086 11.0296C20.8873 10.9683 21.0486 10.8816 21.1926 10.7696L20.5726 10.1536L21.1606 9.56163L21.7526 10.1576C21.8646 9.99763 21.9486 9.82296 22.0046 9.63363C22.0606 9.4443 22.0886 9.24963 22.0886 9.04963C22.0886 8.7643 22.0379 8.49763 21.9366 8.24963C21.8379 7.99896 21.6993 7.77896 21.5206 7.58963C21.3446 7.39763 21.1406 7.2483 20.9086 7.14163C20.6766 7.0323 20.4286 6.97763 20.1646 6.97763C19.8979 6.97763 19.6486 7.0323 19.4166 7.14163C19.1846 7.25096 18.9793 7.40163 18.8006 7.59363C18.6246 7.78296 18.4859 8.00296 18.3846 8.25363C18.2859 8.50163 18.2366 8.76696 18.2366 9.04963C18.2366 9.33496 18.2859 9.60296 18.3846 9.85363C18.4859 10.1043 18.6259 10.3256 18.8046 10.5176C18.9833 10.707 19.1886 10.855 19.4206 10.9616C19.6526 11.0683 19.9006 11.1216 20.1646 11.1216Z" fill="white"/>
<path fill-rule="evenodd" clip-rule="evenodd" d="M25.5652 10.6521C24.4607 10.6521 23.5652 11.5475 23.5652 12.6521V21.0869C23.5652 22.1915 24.4607 23.0869 25.5652 23.0869H28.1646C29.6032 25.0301 33.2694 25.8087 35.0435 25.9565C33.4532 25.3204 32.8544 23.9792 32.6976 23.0869H34C35.1046 23.0869 36 22.1915 36 21.0869V12.6521C36 11.5475 35.1046 10.6521 34 10.6521H25.5652Z" fill="white"/>
<path d="M28.1646 23.0869L28.5665 22.7894C28.4722 22.662 28.3231 22.5869 28.1646 22.5869V23.0869ZM35.0435 25.9565L35.002 26.4548C35.2487 26.4754 35.4733 26.3123 35.5301 26.0714C35.587 25.8305 35.459 25.5842 35.2292 25.4923L35.0435 25.9565ZM32.6976 23.0869V22.5869C32.5499 22.5869 32.4097 22.6522 32.3147 22.7654C32.2197 22.8785 32.1796 23.0279 32.2052 23.1734L32.6976 23.0869ZM24.0652 12.6521C24.0652 11.8237 24.7368 11.1521 25.5652 11.1521V10.1521C24.1845 10.1521 23.0652 11.2714 23.0652 12.6521H24.0652ZM24.0652 21.0869V12.6521H23.0652V21.0869H24.0652ZM25.5652 22.5869C24.7368 22.5869 24.0652 21.9153 24.0652 21.0869H23.0652C23.0652 22.4676 24.1845 23.5869 25.5652 23.5869V22.5869ZM28.1646 22.5869H25.5652V23.5869H28.1646V22.5869ZM27.7627 23.3844C28.5731 24.4791 29.967 25.2012 31.3148 25.6675C32.6779 26.1391 34.0797 26.3779 35.002 26.4548L35.085 25.4582C34.2332 25.3873 32.9148 25.1629 31.6417 24.7225C30.3532 24.2767 29.1946 23.6379 28.5665 22.7894L27.7627 23.3844ZM35.2292 25.4923C33.8472 24.9395 33.327 23.7796 33.1901 23.0004L32.2052 23.1734C32.3818 24.1788 33.0592 25.7013 34.8578 26.4208L35.2292 25.4923ZM34 22.5869H32.6976V23.5869H34V22.5869ZM35.5 21.0869C35.5 21.9153 34.8285 22.5869 34 22.5869V23.5869C35.3807 23.5869 36.5 22.4676 36.5 21.0869H35.5ZM35.5 12.6521V21.0869H36.5V12.6521H35.5ZM34 11.1521C34.8285 11.1521 35.5 11.8237 35.5 12.6521H36.5C36.5 11.2714 35.3807 10.1521 34 10.1521V11.1521ZM25.5652 11.1521H34V10.1521H25.5652V11.1521Z" fill="#8354FF"/>
<path d="M29.2949 13.9217H30.2669L32.3029 19.5217H31.4229L31.0349 18.4577H28.5269L28.1429 19.5217H27.2589L29.2949 13.9217ZM28.8349 17.6257H30.7269L29.7789 15.0257L28.8349 17.6257Z" fill="#8354FF"/>
</svg>
