<svg width="50" height="50" viewBox="0 0 50 50" fill="none" xmlns="http://www.w3.org/2000/svg">
<rect x="14.8334" y="3" width="21" height="9" rx="1.5" fill="#8354FF" stroke="#8354FF"/>
<rect x="14.8334" y="15" width="9" height="9" rx="1.5" fill="#8354FF" stroke="#8354FF"/>
<rect x="26.8334" y="15" width="9" height="9" rx="1.5" fill="#8354FF" stroke="#8354FF"/>
<path d="M11.1112 35.5H12.3312V42.5H11.1112V39.36H8.21116V42.5H6.99116V35.5H8.21116V38.14H11.1112V35.5ZM15.248 42.63C14.788 42.63 14.368 42.5117 13.988 42.275C13.6113 42.0383 13.3097 41.7217 13.083 41.325C12.8597 40.925 12.748 40.4833 12.748 40C12.748 39.6333 12.813 39.2917 12.943 38.975C13.073 38.655 13.2513 38.375 13.478 38.135C13.708 37.8917 13.9747 37.7017 14.278 37.565C14.5813 37.4283 14.9047 37.36 15.248 37.36C15.708 37.36 16.1263 37.4783 16.503 37.715C16.883 37.9517 17.1847 38.27 17.408 38.67C17.6347 39.07 17.748 39.5133 17.748 40C17.748 40.3633 17.683 40.7033 17.553 41.02C17.423 41.3367 17.243 41.6167 17.013 41.86C16.7863 42.1 16.5213 42.2883 16.218 42.425C15.918 42.5617 15.5947 42.63 15.248 42.63ZM15.248 41.41C15.4913 41.41 15.7097 41.345 15.903 41.215C16.0963 41.085 16.248 40.9133 16.358 40.7C16.4713 40.4867 16.528 40.2533 16.528 40C16.528 39.74 16.4697 39.5033 16.353 39.29C16.2397 39.0733 16.0847 38.9017 15.888 38.775C15.6947 38.645 15.4813 38.58 15.248 38.58C15.008 38.58 14.7913 38.645 14.598 38.775C14.4047 38.905 14.2513 39.0783 14.138 39.295C14.0247 39.5117 13.968 39.7467 13.968 40C13.968 40.2633 14.0263 40.5017 14.143 40.715C14.2597 40.9283 14.4147 41.0983 14.608 41.225C14.8047 41.3483 15.018 41.41 15.248 41.41ZM20.7985 38.72H19.8285V42.5H18.6085V38.72H17.8685V37.5H18.6085V35.93H19.8285V37.5H20.7985V38.72ZM23.2888 42.5V35.5H25.7888C26.1688 35.5 26.5122 35.595 26.8188 35.785C27.1288 35.975 27.3738 36.23 27.5538 36.55C27.7338 36.87 27.8238 37.2217 27.8238 37.605C27.8238 37.9983 27.7305 38.355 27.5438 38.675C27.3605 38.9917 27.1138 39.245 26.8038 39.435C26.4938 39.6217 26.1555 39.715 25.7888 39.715H24.5088V42.5H23.2888ZM24.5088 38.495H25.6588C25.8322 38.495 25.9905 38.4517 26.1338 38.365C26.2772 38.2783 26.3905 38.1617 26.4738 38.015C26.5605 37.8683 26.6038 37.705 26.6038 37.525C26.6038 37.3417 26.5605 37.1767 26.4738 37.03C26.3905 36.8833 26.2772 36.7667 26.1338 36.68C25.9905 36.5933 25.8322 36.55 25.6588 36.55H24.5088V38.495ZM28.3301 42.5V35H29.5501V42.5H28.3301ZM34.0358 37.5H35.2558V42.5H34.0358L33.9808 41.88C33.8441 42.1033 33.6625 42.285 33.4358 42.425C33.2125 42.5617 32.9475 42.63 32.6408 42.63C32.2708 42.63 31.9241 42.56 31.6008 42.42C31.2775 42.28 30.9925 42.0867 30.7458 41.84C30.5025 41.5933 30.3108 41.3083 30.1708 40.985C30.0341 40.6617 29.9658 40.315 29.9658 39.945C29.9658 39.5883 30.0308 39.2533 30.1608 38.94C30.2941 38.6267 30.4791 38.3517 30.7158 38.115C30.9525 37.8783 31.2258 37.6933 31.5358 37.56C31.8458 37.4267 32.1791 37.36 32.5358 37.36C32.8658 37.36 33.1608 37.4333 33.4208 37.58C33.6841 37.7267 33.9075 37.9133 34.0908 38.14L34.0358 37.5ZM32.6108 41.455C32.8708 41.455 33.1008 41.39 33.3008 41.26C33.5008 41.13 33.6575 40.955 33.7708 40.735C33.8841 40.5117 33.9408 40.2667 33.9408 40C33.9408 39.73 33.8841 39.485 33.7708 39.265C33.6575 39.0417 33.4991 38.865 33.2958 38.735C33.0958 38.605 32.8675 38.54 32.6108 38.54C32.3541 38.54 32.1191 38.6067 31.9058 38.74C31.6958 38.87 31.5275 39.045 31.4008 39.265C31.2775 39.485 31.2158 39.73 31.2158 40C31.2158 40.27 31.2791 40.515 31.4058 40.735C31.5325 40.955 31.7008 41.13 31.9108 41.26C32.1241 41.39 32.3575 41.455 32.6108 41.455ZM38.8465 40.995L39.9465 41.59C39.7165 41.9033 39.4282 42.155 39.0815 42.345C38.7348 42.535 38.3565 42.63 37.9465 42.63C37.4865 42.63 37.0665 42.5117 36.6865 42.275C36.3098 42.0383 36.0082 41.7217 35.7815 41.325C35.5582 40.925 35.4465 40.4833 35.4465 40C35.4465 39.6333 35.5115 39.2917 35.6415 38.975C35.7715 38.655 35.9498 38.375 36.1765 38.135C36.4065 37.8917 36.6732 37.7017 36.9765 37.565C37.2798 37.4283 37.6032 37.36 37.9465 37.36C38.3565 37.36 38.7348 37.455 39.0815 37.645C39.4282 37.835 39.7165 38.09 39.9465 38.41L38.8465 39C38.7298 38.8667 38.5915 38.7633 38.4315 38.69C38.2748 38.6167 38.1132 38.58 37.9465 38.58C37.7065 38.58 37.4898 38.6467 37.2965 38.78C37.1032 38.91 36.9498 39.0833 36.8365 39.3C36.7232 39.5133 36.6665 39.7467 36.6665 40C36.6665 40.25 36.7232 40.4833 36.8365 40.7C36.9498 40.9133 37.1032 41.085 37.2965 41.215C37.4898 41.345 37.7065 41.41 37.9465 41.41C38.1198 41.41 38.2848 41.3733 38.4415 41.3C38.5982 41.2233 38.7332 41.1217 38.8465 40.995ZM42.4799 42.63C42.0199 42.63 41.5999 42.5117 41.2199 42.275C40.8432 42.0383 40.5416 41.72 40.3149 41.32C40.0916 40.92 39.9799 40.4783 39.9799 39.995C39.9799 39.6317 40.0449 39.2917 40.1749 38.975C40.3049 38.655 40.4832 38.375 40.7099 38.135C40.9399 37.8917 41.2066 37.7017 41.5099 37.565C41.8132 37.4283 42.1366 37.36 42.4799 37.36C42.8699 37.36 43.2266 37.4433 43.5499 37.61C43.8766 37.7733 44.1532 37.9983 44.3799 38.285C44.6066 38.5717 44.7716 38.8983 44.8749 39.265C44.9782 39.6317 45.0016 40.015 44.9449 40.415H41.2899C41.3366 40.6017 41.4132 40.77 41.5199 40.92C41.6266 41.0667 41.7616 41.185 41.9249 41.275C42.0882 41.3617 42.2732 41.4067 42.4799 41.41C42.6932 41.4133 42.8866 41.3633 43.0599 41.26C43.2366 41.1533 43.3832 41.01 43.4999 40.83L44.7449 41.12C44.5416 41.5633 44.2382 41.9267 43.8349 42.21C43.4316 42.49 42.9799 42.63 42.4799 42.63ZM41.2499 39.5H43.7099C43.6732 39.3 43.5949 39.12 43.4749 38.96C43.3582 38.7967 43.2132 38.6667 43.0399 38.57C42.8666 38.4733 42.6799 38.425 42.4799 38.425C42.2799 38.425 42.0949 38.4733 41.9249 38.57C41.7549 38.6633 41.6099 38.7917 41.4899 38.955C41.3732 39.115 41.2932 39.2967 41.2499 39.5Z" fill="#8354FF"/>
</svg>
