<svg width="24" height="24" viewBox="0 0 24 24" fill="none" xmlns="http://www.w3.org/2000/svg">
<path fill-rule="evenodd" clip-rule="evenodd" d="M5.07086 4.92914C4.63695 5.36305 4.63695 6.06657 5.07086 6.50048L10.5707 12.0003L5.07115 17.4998C4.63723 17.9337 4.63724 18.6372 5.07115 19.0712C5.50507 19.5051 6.20858 19.5051 6.6425 19.0712L12.142 13.5716L17.6417 19.0713C18.0756 19.5052 18.7791 19.5052 19.213 19.0713C19.6469 18.6374 19.6469 17.9338 19.213 17.4999L13.7134 12.0003L19.2133 6.50036C19.6472 6.06645 19.6472 5.36293 19.2133 4.92902C18.7794 4.4951 18.0759 4.4951 17.6419 4.92902L12.142 10.4289L6.64221 4.92914C6.2083 4.49522 5.50478 4.49522 5.07086 4.92914Z" fill="black"/>
</svg>
