<svg width="50" height="50" viewBox="0 0 50 50" fill="none" xmlns="http://www.w3.org/2000/svg">
<g clip-path="url(#clip0_2867_1807)">
<rect x="14.8335" y="3" width="21" height="9" rx="1.5" fill="white" stroke="#8A8A8A"/>
<rect x="14.8335" y="15" width="9" height="9" rx="1.5" fill="white" stroke="#8A8A8A"/>
<rect x="26.8335" y="15" width="9" height="9" rx="1.5" fill="white" stroke="#8A8A8A"/>
<path d="M4.59944 42.63C4.12611 42.63 3.68111 42.5367 3.26444 42.35C2.84777 42.16 2.48111 41.8983 2.16444 41.565C1.85111 41.2317 1.60444 40.8467 1.42444 40.41C1.24777 39.97 1.15944 39.5 1.15944 39C1.15944 38.4967 1.24777 38.0267 1.42444 37.59C1.60444 37.15 1.85111 36.765 2.16444 36.435C2.48111 36.1017 2.84777 35.8417 3.26444 35.655C3.68111 35.465 4.12611 35.37 4.59944 35.37C5.16611 35.37 5.68777 35.5017 6.16444 35.765C6.64111 36.025 7.03611 36.3733 7.34944 36.81L6.25944 37.395C6.06277 37.1517 5.81777 36.9567 5.52444 36.81C5.23444 36.6633 4.92611 36.59 4.59944 36.59C4.29277 36.59 4.00444 36.6533 3.73444 36.78C3.46444 36.9033 3.22777 37.0767 3.02444 37.3C2.82111 37.52 2.66277 37.7767 2.54944 38.07C2.43611 38.36 2.37944 38.67 2.37944 39C2.37944 39.3333 2.43611 39.645 2.54944 39.935C2.66611 40.225 2.82611 40.4817 3.02944 40.705C3.23277 40.925 3.46777 41.0983 3.73444 41.225C4.00444 41.3483 4.29277 41.41 4.59944 41.41C4.93277 41.41 5.24277 41.3367 5.52944 41.19C5.81944 41.04 6.06277 40.8433 6.25944 40.6L7.34944 41.19C7.03611 41.6233 6.64111 41.9717 6.16444 42.235C5.68777 42.4983 5.16611 42.63 4.59944 42.63ZM9.82136 42.63C9.36136 42.63 8.94136 42.5117 8.56136 42.275C8.1847 42.0383 7.88303 41.7217 7.65636 41.325C7.43303 40.925 7.32136 40.4833 7.32136 40C7.32136 39.6333 7.38636 39.2917 7.51636 38.975C7.64636 38.655 7.8247 38.375 8.05136 38.135C8.28136 37.8917 8.54803 37.7017 8.85136 37.565C9.1547 37.4283 9.47803 37.36 9.82136 37.36C10.2814 37.36 10.6997 37.4783 11.0764 37.715C11.4564 37.9517 11.758 38.27 11.9814 38.67C12.208 39.07 12.3214 39.5133 12.3214 40C12.3214 40.3633 12.2564 40.7033 12.1264 41.02C11.9964 41.3367 11.8164 41.6167 11.5864 41.86C11.3597 42.1 11.0947 42.2883 10.7914 42.425C10.4914 42.5617 10.168 42.63 9.82136 42.63ZM9.82136 41.41C10.0647 41.41 10.283 41.345 10.4764 41.215C10.6697 41.085 10.8214 40.9133 10.9314 40.7C11.0447 40.4867 11.1014 40.2533 11.1014 40C11.1014 39.74 11.043 39.5033 10.9264 39.29C10.813 39.0733 10.658 38.9017 10.4614 38.775C10.268 38.645 10.0547 38.58 9.82136 38.58C9.58136 38.58 9.3647 38.645 9.17136 38.775C8.97803 38.905 8.8247 39.0783 8.71136 39.295C8.59803 39.5117 8.54136 39.7467 8.54136 40C8.54136 40.2633 8.5997 40.5017 8.71636 40.715C8.83303 40.9283 8.98803 41.0983 9.18136 41.225C9.37803 41.3483 9.59136 41.41 9.82136 41.41ZM12.6919 42.5V37.5H13.9119V37.945C14.0819 37.765 14.2852 37.6233 14.5219 37.52C14.7585 37.4133 15.0135 37.36 15.2869 37.36C15.6335 37.36 15.9519 37.4417 16.2419 37.605C16.5352 37.7683 16.7685 37.9867 16.9419 38.26C17.1185 37.9867 17.3519 37.7683 17.6419 37.605C17.9319 37.4417 18.2502 37.36 18.5969 37.36C18.9635 37.36 19.2952 37.45 19.5919 37.63C19.8919 37.8067 20.1302 38.045 20.3069 38.345C20.4869 38.6417 20.5769 38.9733 20.5769 39.34V42.5H19.3569V39.665C19.3569 39.4717 19.3085 39.295 19.2119 39.135C19.1185 38.9717 18.9919 38.8417 18.8319 38.745C18.6752 38.645 18.4985 38.595 18.3019 38.595C18.1052 38.595 17.9269 38.6433 17.7669 38.74C17.6102 38.8333 17.4835 38.96 17.3869 39.12C17.2902 39.28 17.2419 39.4617 17.2419 39.665V42.5H16.0219V39.665C16.0219 39.4617 15.9752 39.28 15.8819 39.12C15.7885 38.96 15.6619 38.8333 15.5019 38.74C15.3419 38.6433 15.1635 38.595 14.9669 38.595C14.7735 38.595 14.5969 38.645 14.4369 38.745C14.2769 38.8417 14.1485 38.9717 14.0519 39.135C13.9585 39.295 13.9119 39.4717 13.9119 39.665V42.5H12.6919ZM21.1706 42.5V37.5H22.3906V37.945C22.5606 37.765 22.7639 37.6233 23.0006 37.52C23.2373 37.4133 23.4923 37.36 23.7656 37.36C24.1123 37.36 24.4306 37.4417 24.7206 37.605C25.0139 37.7683 25.2473 37.9867 25.4206 38.26C25.5973 37.9867 25.8306 37.7683 26.1206 37.605C26.4106 37.4417 26.7289 37.36 27.0756 37.36C27.4423 37.36 27.7739 37.45 28.0706 37.63C28.3706 37.8067 28.6089 38.045 28.7856 38.345C28.9656 38.6417 29.0556 38.9733 29.0556 39.34V42.5H27.8356V39.665C27.8356 39.4717 27.7873 39.295 27.6906 39.135C27.5973 38.9717 27.4706 38.8417 27.3106 38.745C27.1539 38.645 26.9773 38.595 26.7806 38.595C26.5839 38.595 26.4056 38.6433 26.2456 38.74C26.0889 38.8333 25.9623 38.96 25.8656 39.12C25.7689 39.28 25.7206 39.4617 25.7206 39.665V42.5H24.5006V39.665C24.5006 39.4617 24.4539 39.28 24.3606 39.12C24.2673 38.96 24.1406 38.8333 23.9806 38.74C23.8206 38.6433 23.6423 38.595 23.4456 38.595C23.2523 38.595 23.0756 38.645 22.9156 38.745C22.7556 38.8417 22.6273 38.9717 22.5306 39.135C22.4373 39.295 22.3906 39.4717 22.3906 39.665V42.5H21.1706ZM29.4493 40.65V37.5H30.6693V40.33C30.6693 40.5267 30.7176 40.7067 30.8143 40.87C30.911 41.03 31.0393 41.1583 31.1993 41.255C31.3626 41.3483 31.541 41.395 31.7343 41.395C31.9343 41.395 32.1143 41.3483 32.2743 41.255C32.4343 41.1583 32.5626 41.03 32.6593 40.87C32.756 40.7067 32.8043 40.5267 32.8043 40.33V37.5H34.0243L34.0293 42.5H32.8093L32.8043 42.045C32.631 42.225 32.426 42.3683 32.1893 42.475C31.9526 42.5783 31.6993 42.63 31.4293 42.63C31.066 42.63 30.7343 42.5417 30.4343 42.365C30.1343 42.185 29.8943 41.9467 29.7143 41.65C29.5376 41.35 29.4493 41.0167 29.4493 40.65ZM39.2022 39.34V42.5H37.9822V39.66C37.9822 39.4633 37.9338 39.285 37.8372 39.125C37.7405 38.9617 37.6105 38.8333 37.4472 38.74C37.2872 38.6433 37.1088 38.595 36.9122 38.595C36.7155 38.595 36.5355 38.6433 36.3722 38.74C36.2122 38.8333 36.0838 38.9617 35.9872 39.125C35.8938 39.285 35.8472 39.4633 35.8472 39.66V42.5H34.6272L34.6222 37.5H35.8422L35.8472 37.945C36.0172 37.765 36.2205 37.6233 36.4572 37.52C36.6938 37.4133 36.9488 37.36 37.2222 37.36C37.5855 37.36 37.9172 37.45 38.2172 37.63C38.5172 37.8067 38.7555 38.045 38.9322 38.345C39.1122 38.6417 39.2022 38.9733 39.2022 39.34ZM39.7903 37.5H41.0103V42.5H39.7903V37.5ZM40.4103 36.855C40.2303 36.855 40.0787 36.7967 39.9553 36.68C39.832 36.56 39.7703 36.41 39.7703 36.23C39.7703 36.0533 39.832 35.905 39.9553 35.785C40.0787 35.665 40.2287 35.605 40.4053 35.605C40.582 35.605 40.7303 35.665 40.8503 35.785C40.9737 35.905 41.0353 36.0533 41.0353 36.23C41.0353 36.41 40.9753 36.56 40.8553 36.68C40.7353 36.7967 40.587 36.855 40.4103 36.855ZM44.4842 38.72H43.5142V42.5H42.2942V38.72H41.5542V37.5H42.2942V35.93H43.5142V37.5H44.4842V38.72ZM48.2149 37.5H49.5099L46.7749 45H45.4799L46.3849 42.5L44.5849 37.5H45.9199L46.9949 40.83L48.2149 37.5Z" fill="#8A8A8A"/>
</g>
<defs>
<clipPath id="clip0_2867_1807">
<rect width="50" height="50" fill="white"/>
</clipPath>
</defs>
</svg>
