<svg width="40" height="45" viewBox="0 0 40 45" fill="none" xmlns="http://www.w3.org/2000/svg">
<path d="M9 4.47222C9 3.41872 9.4185 2.40837 10.1634 1.66344C10.9084 0.918501 11.9187 0.5 12.9722 0.5H27.0278C28.0813 0.5 29.0916 0.918501 29.8366 1.66344C30.5815 2.40837 31 3.41872 31 4.47222V18.5278C31 19.5813 30.5815 20.5916 29.8366 21.3366C29.0916 22.0815 28.0813 22.5 27.0278 22.5H12.9722C11.9187 22.5 10.9084 22.0815 10.1634 21.3366C9.4185 20.5916 9 19.5813 9 18.5278V4.47222ZM14.1944 13.9444C13.9513 13.9444 13.7182 14.041 13.5463 14.2129C13.3744 14.3848 13.2778 14.618 13.2778 14.8611C13.2778 15.1042 13.3744 15.3374 13.5463 15.5093C13.7182 15.6812 13.9513 15.7778 14.1944 15.7778H18.4722C18.7153 15.7778 18.9485 15.6812 19.1204 15.5093C19.2923 15.3374 19.3889 15.1042 19.3889 14.8611C19.3889 14.618 19.2923 14.3848 19.1204 14.2129C18.9485 14.041 18.7153 13.9444 18.4722 13.9444H14.1944ZM13.2778 8.13889C13.2778 8.64489 13.6884 9.05556 14.1944 9.05556H18.4722C18.7153 9.05556 18.9485 8.95898 19.1204 8.78707C19.2923 8.61516 19.3889 8.382 19.3889 8.13889C19.3889 7.89577 19.2923 7.66262 19.1204 7.49071C18.9485 7.3188 18.7153 7.22222 18.4722 7.22222H14.1944C13.9513 7.22222 13.7182 7.3188 13.5463 7.49071C13.3744 7.66262 13.2778 7.89577 13.2778 8.13889ZM27.0644 7.56444C27.2264 7.39067 27.3145 7.16084 27.3103 6.92336C27.3061 6.68588 27.2099 6.4593 27.042 6.29135C26.874 6.1234 26.6474 6.0272 26.41 6.02301C26.1725 6.01882 25.9427 6.10697 25.7689 6.26889L23.9722 8.06556L23.3978 7.49111C23.3139 7.40105 23.2127 7.32881 23.1002 7.27871C22.9878 7.22861 22.8664 7.20167 22.7433 7.1995C22.6202 7.19733 22.498 7.21997 22.3838 7.26607C22.2697 7.31218 22.166 7.3808 22.079 7.46784C21.9919 7.55489 21.9233 7.65857 21.8772 7.77271C21.8311 7.88685 21.8084 8.00911 21.8106 8.13219C21.8128 8.25527 21.8397 8.37666 21.8898 8.4891C21.9399 8.60155 22.0122 8.70275 22.1022 8.78667L23.3244 10.0089C23.4963 10.1806 23.7293 10.277 23.9722 10.277C24.2151 10.277 24.4481 10.1806 24.62 10.0089L27.0644 7.56444ZM27.0644 12.9911C26.8926 12.8194 26.6596 12.723 26.4167 12.723C26.1737 12.723 25.9408 12.8194 25.7689 12.9911L23.9722 14.7878L23.3978 14.2133C23.3139 14.1233 23.2127 14.051 23.1002 14.0009C22.9878 13.9508 22.8664 13.9239 22.7433 13.9217C22.6202 13.9195 22.498 13.9422 22.3838 13.9883C22.2697 14.0344 22.166 14.103 22.079 14.1901C21.9919 14.2771 21.9233 14.3808 21.8772 14.4949C21.8311 14.6091 21.8084 14.7313 21.8106 14.8544C21.8128 14.9775 21.8397 15.0989 21.8898 15.2113C21.9399 15.3238 22.0122 15.425 22.1022 15.5089L23.3244 16.7311C23.4963 16.9028 23.7293 16.9992 23.9722 16.9992C24.2151 16.9992 24.4481 16.9028 24.62 16.7311L27.0644 14.2867C27.2361 14.1148 27.3325 13.8818 27.3325 13.6389C27.3325 13.396 27.2361 13.163 27.0644 12.9911Z" fill="#8354FF"/>
<path d="M0.90007 37.5L2.26007 30.5H3.27007L4.97507 34.985L6.68007 30.5H7.69007L9.05007 37.5H7.80507L6.96507 33.17L5.39007 37.34H4.55507L2.98007 33.17L2.14507 37.5H0.90007ZM12.7014 32.5H13.9964L11.2614 40H9.96637L10.8714 37.5L9.07137 32.5H10.4064L11.4814 35.83L12.7014 32.5ZM21.8804 30.5V31.72H19.7404V37.5H18.5204V31.72H16.3804V30.5H21.8804ZM25.4795 32.5H26.6995V37.5H25.4795L25.4245 36.88C25.2878 37.1033 25.1061 37.285 24.8795 37.425C24.6561 37.5617 24.3911 37.63 24.0845 37.63C23.7145 37.63 23.3678 37.56 23.0445 37.42C22.7211 37.28 22.4361 37.0867 22.1895 36.84C21.9461 36.5933 21.7545 36.3083 21.6145 35.985C21.4778 35.6617 21.4095 35.315 21.4095 34.945C21.4095 34.5883 21.4745 34.2533 21.6045 33.94C21.7378 33.6267 21.9228 33.3517 22.1595 33.115C22.3961 32.8783 22.6695 32.6933 22.9795 32.56C23.2895 32.4267 23.6228 32.36 23.9795 32.36C24.3095 32.36 24.6045 32.4333 24.8645 32.58C25.1278 32.7267 25.3511 32.9133 25.5345 33.14L25.4795 32.5ZM24.0545 36.455C24.3145 36.455 24.5445 36.39 24.7445 36.26C24.9445 36.13 25.1011 35.955 25.2145 35.735C25.3278 35.5117 25.3845 35.2667 25.3845 35C25.3845 34.73 25.3278 34.485 25.2145 34.265C25.1011 34.0417 24.9428 33.865 24.7395 33.735C24.5395 33.605 24.3111 33.54 24.0545 33.54C23.7978 33.54 23.5628 33.6067 23.3495 33.74C23.1395 33.87 22.9711 34.045 22.8445 34.265C22.7211 34.485 22.6595 34.73 22.6595 35C22.6595 35.27 22.7228 35.515 22.8495 35.735C22.9761 35.955 23.1445 36.13 23.3545 36.26C23.5678 36.39 23.8011 36.455 24.0545 36.455ZM28.7628 37.59C28.5028 37.5733 28.2511 37.5217 28.0078 37.435C27.7678 37.345 27.5545 37.2233 27.3678 37.07C27.1811 36.9167 27.0378 36.7333 26.9378 36.52L27.9678 36.08C28.0078 36.1467 28.0728 36.2183 28.1628 36.295C28.2528 36.3683 28.3595 36.43 28.4828 36.48C28.6095 36.53 28.7478 36.555 28.8978 36.555C29.0245 36.555 29.1445 36.5383 29.2578 36.505C29.3745 36.4683 29.4678 36.4133 29.5378 36.34C29.6111 36.2667 29.6478 36.1717 29.6478 36.055C29.6478 35.9317 29.6045 35.8367 29.5178 35.77C29.4345 35.7 29.3278 35.6483 29.1978 35.615C29.0711 35.5783 28.9478 35.545 28.8278 35.515C28.5111 35.4517 28.2161 35.3533 27.9428 35.22C27.6728 35.0867 27.4545 34.915 27.2878 34.705C27.1245 34.4917 27.0428 34.235 27.0428 33.935C27.0428 33.605 27.1295 33.32 27.3028 33.08C27.4795 32.84 27.7078 32.655 27.9878 32.525C28.2711 32.395 28.5761 32.33 28.9028 32.33C29.2995 32.33 29.6628 32.4133 29.9928 32.58C30.3261 32.7433 30.5895 32.975 30.7828 33.275L29.8178 33.845C29.7711 33.765 29.7061 33.6917 29.6228 33.625C29.5395 33.555 29.4445 33.4983 29.3378 33.455C29.2311 33.4083 29.1195 33.3817 29.0028 33.375C28.8528 33.3683 28.7161 33.3817 28.5928 33.415C28.4695 33.4483 28.3695 33.505 28.2928 33.585C28.2195 33.665 28.1828 33.7717 28.1828 33.905C28.1828 34.0317 28.2328 34.1267 28.3328 34.19C28.4328 34.25 28.5528 34.2967 28.6928 34.33C28.8361 34.3633 28.9728 34.4 29.1028 34.44C29.3961 34.5367 29.6711 34.655 29.9278 34.795C30.1878 34.935 30.3961 35.1067 30.5528 35.31C30.7095 35.5133 30.7845 35.7567 30.7778 36.04C30.7778 36.3633 30.6811 36.6467 30.4878 36.89C30.2945 37.13 30.0445 37.3133 29.7378 37.44C29.4345 37.5667 29.1095 37.6167 28.7628 37.59ZM35.6905 37.5H34.2855L33.1455 35.535L32.4455 36.37V37.5H31.2255V30H32.4455V34.475L34.1005 32.5H35.6955L33.9805 34.545L35.6905 37.5ZM37.4292 37.59C37.1692 37.5733 36.9176 37.5217 36.6742 37.435C36.4342 37.345 36.2209 37.2233 36.0342 37.07C35.8476 36.9167 35.7042 36.7333 35.6042 36.52L36.6342 36.08C36.6742 36.1467 36.7392 36.2183 36.8292 36.295C36.9192 36.3683 37.0259 36.43 37.1492 36.48C37.2759 36.53 37.4142 36.555 37.5642 36.555C37.6909 36.555 37.8109 36.5383 37.9242 36.505C38.0409 36.4683 38.1342 36.4133 38.2042 36.34C38.2776 36.2667 38.3142 36.1717 38.3142 36.055C38.3142 35.9317 38.2709 35.8367 38.1842 35.77C38.1009 35.7 37.9942 35.6483 37.8642 35.615C37.7376 35.5783 37.6142 35.545 37.4942 35.515C37.1776 35.4517 36.8826 35.3533 36.6092 35.22C36.3392 35.0867 36.1209 34.915 35.9542 34.705C35.7909 34.4917 35.7092 34.235 35.7092 33.935C35.7092 33.605 35.7959 33.32 35.9692 33.08C36.1459 32.84 36.3742 32.655 36.6542 32.525C36.9376 32.395 37.2426 32.33 37.5692 32.33C37.9659 32.33 38.3292 32.4133 38.6592 32.58C38.9926 32.7433 39.2559 32.975 39.4492 33.275L38.4842 33.845C38.4376 33.765 38.3726 33.6917 38.2892 33.625C38.2059 33.555 38.1109 33.4983 38.0042 33.455C37.8976 33.4083 37.7859 33.3817 37.6692 33.375C37.5192 33.3683 37.3826 33.3817 37.2592 33.415C37.1359 33.4483 37.0359 33.505 36.9592 33.585C36.8859 33.665 36.8492 33.7717 36.8492 33.905C36.8492 34.0317 36.8992 34.1267 36.9992 34.19C37.0992 34.25 37.2192 34.2967 37.3592 34.33C37.5026 34.3633 37.6392 34.4 37.7692 34.44C38.0626 34.5367 38.3376 34.655 38.5942 34.795C38.8542 34.935 39.0626 35.1067 39.2192 35.31C39.3759 35.5133 39.4509 35.7567 39.4442 36.04C39.4442 36.3633 39.3476 36.6467 39.1542 36.89C38.9609 37.13 38.7109 37.3133 38.4042 37.44C38.1009 37.5667 37.7759 37.6167 37.4292 37.59Z" fill="#8A8A8A"/>
</svg>
