<svg width="27" height="45" viewBox="0 0 27 45" fill="none" xmlns="http://www.w3.org/2000/svg">
<path d="M3.33331 22.5V7.83333L13.3333 0.5L23.3333 7.83333V22.5H15.8333V13.9444H10.8333V22.5H3.33331Z" fill="url(#paint0_linear_319_594)"/>
<path d="M5.50125 30.5H6.72125V37.5H5.50125V34.36H2.60125V37.5H1.38125V30.5H2.60125V33.14H5.50125V30.5ZM9.63809 37.63C9.17809 37.63 8.75809 37.5117 8.37809 37.275C8.00143 37.0383 7.69976 36.7217 7.47309 36.325C7.24976 35.925 7.13809 35.4833 7.13809 35C7.13809 34.6333 7.20309 34.2917 7.33309 33.975C7.46309 33.655 7.64143 33.375 7.86809 33.135C8.09809 32.8917 8.36476 32.7017 8.66809 32.565C8.97143 32.4283 9.29476 32.36 9.63809 32.36C10.0981 32.36 10.5164 32.4783 10.8931 32.715C11.2731 32.9517 11.5748 33.27 11.7981 33.67C12.0248 34.07 12.1381 34.5133 12.1381 35C12.1381 35.3633 12.0731 35.7033 11.9431 36.02C11.8131 36.3367 11.6331 36.6167 11.4031 36.86C11.1764 37.1 10.9114 37.2883 10.6081 37.425C10.3081 37.5617 9.98476 37.63 9.63809 37.63ZM9.63809 36.41C9.88143 36.41 10.0998 36.345 10.2931 36.215C10.4864 36.085 10.6381 35.9133 10.7481 35.7C10.8614 35.4867 10.9181 35.2533 10.9181 35C10.9181 34.74 10.8598 34.5033 10.7431 34.29C10.6298 34.0733 10.4748 33.9017 10.2781 33.775C10.0848 33.645 9.87143 33.58 9.63809 33.58C9.39809 33.58 9.18143 33.645 8.98809 33.775C8.79476 33.905 8.64143 34.0783 8.52809 34.295C8.41476 34.5117 8.35809 34.7467 8.35809 35C8.35809 35.2633 8.41643 35.5017 8.53309 35.715C8.64976 35.9283 8.80476 36.0983 8.99809 36.225C9.19476 36.3483 9.40809 36.41 9.63809 36.41ZM12.5086 37.5V32.5H13.7286V32.945C13.8986 32.765 14.1019 32.6233 14.3386 32.52C14.5753 32.4133 14.8303 32.36 15.1036 32.36C15.4503 32.36 15.7686 32.4417 16.0586 32.605C16.3519 32.7683 16.5853 32.9867 16.7586 33.26C16.9353 32.9867 17.1686 32.7683 17.4586 32.605C17.7486 32.4417 18.0669 32.36 18.4136 32.36C18.7803 32.36 19.1119 32.45 19.4086 32.63C19.7086 32.8067 19.9469 33.045 20.1236 33.345C20.3036 33.6417 20.3936 33.9733 20.3936 34.34V37.5H19.1736V34.665C19.1736 34.4717 19.1253 34.295 19.0286 34.135C18.9353 33.9717 18.8086 33.8417 18.6486 33.745C18.4919 33.645 18.3153 33.595 18.1186 33.595C17.9219 33.595 17.7436 33.6433 17.5836 33.74C17.4269 33.8333 17.3003 33.96 17.2036 34.12C17.1069 34.28 17.0586 34.4617 17.0586 34.665V37.5H15.8386V34.665C15.8386 34.4617 15.7919 34.28 15.6986 34.12C15.6053 33.96 15.4786 33.8333 15.3186 33.74C15.1586 33.6433 14.9803 33.595 14.7836 33.595C14.5903 33.595 14.4136 33.645 14.2536 33.745C14.0936 33.8417 13.9653 33.9717 13.8686 34.135C13.7753 34.295 13.7286 34.4717 13.7286 34.665V37.5H12.5086ZM23.0897 37.63C22.6297 37.63 22.2097 37.5117 21.8297 37.275C21.453 37.0383 21.1513 36.72 20.9247 36.32C20.7013 35.92 20.5897 35.4783 20.5897 34.995C20.5897 34.6317 20.6547 34.2917 20.7847 33.975C20.9147 33.655 21.093 33.375 21.3197 33.135C21.5497 32.8917 21.8163 32.7017 22.1197 32.565C22.423 32.4283 22.7463 32.36 23.0897 32.36C23.4797 32.36 23.8363 32.4433 24.1597 32.61C24.4863 32.7733 24.763 32.9983 24.9897 33.285C25.2163 33.5717 25.3813 33.8983 25.4847 34.265C25.588 34.6317 25.6113 35.015 25.5547 35.415H21.8997C21.9463 35.6017 22.023 35.77 22.1297 35.92C22.2363 36.0667 22.3713 36.185 22.5347 36.275C22.698 36.3617 22.883 36.4067 23.0897 36.41C23.303 36.4133 23.4963 36.3633 23.6697 36.26C23.8463 36.1533 23.993 36.01 24.1097 35.83L25.3547 36.12C25.1513 36.5633 24.848 36.9267 24.4447 37.21C24.0413 37.49 23.5897 37.63 23.0897 37.63ZM21.8597 34.5H24.3197C24.283 34.3 24.2047 34.12 24.0847 33.96C23.968 33.7967 23.823 33.6667 23.6497 33.57C23.4763 33.4733 23.2897 33.425 23.0897 33.425C22.8897 33.425 22.7047 33.4733 22.5347 33.57C22.3647 33.6633 22.2197 33.7917 22.0997 33.955C21.983 34.115 21.903 34.2967 21.8597 34.5Z" fill="url(#paint1_linear_319_594)"/>
<defs>
<linearGradient id="paint0_linear_319_594" x1="3.33331" y1="11.5002" x2="23.3333" y2="11.5002" gradientUnits="userSpaceOnUse">
<stop stop-color="#7FDDFF"/>
<stop offset="1" stop-color="#8354FF"/>
</linearGradient>
<linearGradient id="paint1_linear_319_594" x1="0.333313" y1="33.5002" x2="26.3333" y2="33.5002" gradientUnits="userSpaceOnUse">
<stop stop-color="#7FDDFF"/>
<stop offset="1" stop-color="#8354FF"/>
</linearGradient>
</defs>
</svg>
