<svg width="50" height="50" viewBox="0 0 50 50" fill="none" xmlns="http://www.w3.org/2000/svg">
<path d="M15.3333 24.5V9.83333L25.3333 2.5L35.3333 9.83333V24.5H27.8333V15.9444H22.8333V24.5H15.3333Z" fill="#8354FF" stroke="#8354FF"/>
<path d="M17.5013 35.5H18.7213V42.5H17.5013V39.36H14.6013V42.5H13.3813V35.5H14.6013V38.14H17.5013V35.5ZM21.6381 42.63C21.1781 42.63 20.7581 42.5117 20.3781 42.275C20.0014 42.0383 19.6998 41.7217 19.4731 41.325C19.2498 40.925 19.1381 40.4833 19.1381 40C19.1381 39.6333 19.2031 39.2917 19.3331 38.975C19.4631 38.655 19.6414 38.375 19.8681 38.135C20.0981 37.8917 20.3648 37.7017 20.6681 37.565C20.9714 37.4283 21.2948 37.36 21.6381 37.36C22.0981 37.36 22.5164 37.4783 22.8931 37.715C23.2731 37.9517 23.5748 38.27 23.7981 38.67C24.0248 39.07 24.1381 39.5133 24.1381 40C24.1381 40.3633 24.0731 40.7033 23.9431 41.02C23.8131 41.3367 23.6331 41.6167 23.4031 41.86C23.1764 42.1 22.9114 42.2883 22.6081 42.425C22.3081 42.5617 21.9848 42.63 21.6381 42.63ZM21.6381 41.41C21.8814 41.41 22.0998 41.345 22.2931 41.215C22.4864 41.085 22.6381 40.9133 22.7481 40.7C22.8614 40.4867 22.9181 40.2533 22.9181 40C22.9181 39.74 22.8598 39.5033 22.7431 39.29C22.6298 39.0733 22.4748 38.9017 22.2781 38.775C22.0848 38.645 21.8714 38.58 21.6381 38.58C21.3981 38.58 21.1814 38.645 20.9881 38.775C20.7948 38.905 20.6414 39.0783 20.5281 39.295C20.4148 39.5117 20.3581 39.7467 20.3581 40C20.3581 40.2633 20.4164 40.5017 20.5331 40.715C20.6498 40.9283 20.8048 41.0983 20.9981 41.225C21.1948 41.3483 21.4081 41.41 21.6381 41.41ZM24.5086 42.5V37.5H25.7286V37.945C25.8986 37.765 26.1019 37.6233 26.3386 37.52C26.5753 37.4133 26.8303 37.36 27.1036 37.36C27.4503 37.36 27.7686 37.4417 28.0586 37.605C28.3519 37.7683 28.5853 37.9867 28.7586 38.26C28.9353 37.9867 29.1686 37.7683 29.4586 37.605C29.7486 37.4417 30.0669 37.36 30.4136 37.36C30.7803 37.36 31.1119 37.45 31.4086 37.63C31.7086 37.8067 31.9469 38.045 32.1236 38.345C32.3036 38.6417 32.3936 38.9733 32.3936 39.34V42.5H31.1736V39.665C31.1736 39.4717 31.1253 39.295 31.0286 39.135C30.9353 38.9717 30.8086 38.8417 30.6486 38.745C30.4919 38.645 30.3153 38.595 30.1186 38.595C29.9219 38.595 29.7436 38.6433 29.5836 38.74C29.4269 38.8333 29.3003 38.96 29.2036 39.12C29.1069 39.28 29.0586 39.4617 29.0586 39.665V42.5H27.8386V39.665C27.8386 39.4617 27.7919 39.28 27.6986 39.12C27.6053 38.96 27.4786 38.8333 27.3186 38.74C27.1586 38.6433 26.9803 38.595 26.7836 38.595C26.5903 38.595 26.4136 38.645 26.2536 38.745C26.0936 38.8417 25.9653 38.9717 25.8686 39.135C25.7753 39.295 25.7286 39.4717 25.7286 39.665V42.5H24.5086ZM35.0897 42.63C34.6297 42.63 34.2097 42.5117 33.8297 42.275C33.453 42.0383 33.1513 41.72 32.9247 41.32C32.7013 40.92 32.5897 40.4783 32.5897 39.995C32.5897 39.6317 32.6547 39.2917 32.7847 38.975C32.9147 38.655 33.093 38.375 33.3197 38.135C33.5497 37.8917 33.8163 37.7017 34.1197 37.565C34.423 37.4283 34.7463 37.36 35.0897 37.36C35.4797 37.36 35.8363 37.4433 36.1597 37.61C36.4863 37.7733 36.763 37.9983 36.9897 38.285C37.2163 38.5717 37.3813 38.8983 37.4847 39.265C37.588 39.6317 37.6113 40.015 37.5547 40.415H33.8997C33.9463 40.6017 34.023 40.77 34.1297 40.92C34.2363 41.0667 34.3713 41.185 34.5347 41.275C34.698 41.3617 34.883 41.4067 35.0897 41.41C35.303 41.4133 35.4963 41.3633 35.6697 41.26C35.8463 41.1533 35.993 41.01 36.1097 40.83L37.3547 41.12C37.1513 41.5633 36.848 41.9267 36.4447 42.21C36.0413 42.49 35.5897 42.63 35.0897 42.63ZM33.8597 39.5H36.3197C36.283 39.3 36.2047 39.12 36.0847 38.96C35.968 38.7967 35.823 38.6667 35.6497 38.57C35.4763 38.4733 35.2897 38.425 35.0897 38.425C34.8897 38.425 34.7047 38.4733 34.5347 38.57C34.3647 38.6633 34.2197 38.7917 34.0997 38.955C33.983 39.115 33.903 39.2967 33.8597 39.5Z" fill="#8354FF"/>
</svg>
