<svg width="32" height="27" viewBox="0 0 32 27" fill="none" xmlns="http://www.w3.org/2000/svg">
<path fill-rule="evenodd" clip-rule="evenodd" d="M16 8.16462C14.7158 5.75097 11.2682 1 7.56984 1C2.9246 1 -8.05145 11.1579 15.9794 25.9747V26C15.9863 25.9958 15.9931 25.9916 16 25.9873C16.0068 25.9916 16.0137 25.9958 16.0205 26V25.9747C40.0514 11.1579 29.0754 1 24.4301 1C20.7317 1 17.2842 5.75097 16 8.16462Z" fill="white"/>
<path d="M16 8.16462L15.1172 8.63432C15.2908 8.96067 15.6303 9.16462 16 9.16462C16.3697 9.16462 16.7092 8.96067 16.8828 8.63432L16 8.16462ZM15.9794 25.9747H16.9794C16.9794 25.6277 16.7996 25.3056 16.5043 25.1235L15.9794 25.9747ZM15.9794 26H14.9794C14.9794 26.3624 15.1755 26.6964 15.4918 26.873C15.8082 27.0497 16.1953 27.0415 16.5039 26.8515L15.9794 26ZM16 25.9873L16.5246 25.136C16.2029 24.9378 15.7971 24.9378 15.4754 25.136L16 25.9873ZM16.0205 26L15.4961 26.8515C15.8046 27.0415 16.1918 27.0497 16.5082 26.873C16.8245 26.6964 17.0205 26.3624 17.0205 26H16.0205ZM16.0205 25.9747L15.4957 25.1235C15.2004 25.3056 15.0205 25.6277 15.0205 25.9747H16.0205ZM7.56984 2C9.00886 2 10.5496 2.94619 11.982 4.38317C13.3834 5.78904 14.5111 7.49529 15.1172 8.63432L16.8828 7.69491C16.2047 6.4203 14.9665 4.54424 13.3985 2.97121C11.8615 1.4293 9.82922 0 7.56984 0V2ZM16.5043 25.1235C4.54853 17.7519 1.74141 11.7961 2.01843 8.00391C2.15727 6.1033 3.06898 4.59906 4.21617 3.5598C5.39072 2.49575 6.7186 2 7.56984 2V0C6.09846 0 4.31237 0.77399 2.8734 2.07758C1.40708 3.40595 0.205715 5.36723 0.0237492 7.8582C-0.340843 12.8492 3.37946 19.3807 15.4546 26.8259L16.5043 25.1235ZM14.9794 25.9747V26H16.9794V25.9747H14.9794ZM16.5039 26.8515C16.5107 26.8472 16.5176 26.843 16.5246 26.8387L15.4754 25.136C15.4687 25.1401 15.4619 25.1443 15.455 25.1485L16.5039 26.8515ZM16.545 25.1485C16.538 25.1443 16.5313 25.1401 16.5246 25.136L15.4754 26.8387C15.4824 26.843 15.4893 26.8473 15.4961 26.8515L16.545 25.1485ZM15.0205 25.9747V26H17.0205V25.9747H15.0205ZM16.5454 26.8259C28.6205 19.3807 32.3408 12.8492 31.9762 7.8582C31.7943 5.36723 30.5929 3.40595 29.1266 2.07758C27.6876 0.77399 25.9015 0 24.4301 0V2C25.2814 2 26.6093 2.49575 27.7838 3.5598C28.931 4.59906 29.8427 6.1033 29.9815 8.00391C30.2586 11.7961 27.4514 17.7519 15.4957 25.1235L16.5454 26.8259ZM24.4301 0C22.1708 0 20.1385 1.4293 18.6015 2.97121C17.0335 4.54424 15.7953 6.4203 15.1172 7.69491L16.8828 8.63432C17.4888 7.49529 18.6166 5.78904 20.018 4.38317C21.4504 2.94619 22.9911 2 24.4301 2V0Z" fill="#8354FF"/>
</svg>
