<svg width="24" height="24" viewBox="0 0 24 24" fill="none" xmlns="http://www.w3.org/2000/svg">
<path d="M8.87501 2.89997L17.3 11.3C17.4 11.4 17.4707 11.5083 17.512 11.625C17.554 11.7416 17.575 11.8666 17.575 12C17.575 12.1333 17.554 12.2583 17.512 12.375C17.4707 12.4916 17.4 12.6 17.3 12.7L8.87501 21.125C8.64168 21.3583 8.35001 21.475 8.00001 21.475C7.65001 21.475 7.35001 21.35 7.10001 21.1C6.85001 20.85 6.72501 20.5583 6.72501 20.225C6.72501 19.8916 6.85001 19.6 7.10001 19.35L14.45 12L7.10001 4.64997C6.86668 4.41664 6.75001 4.12931 6.75001 3.78797C6.75001 3.44598 6.87501 3.14997 7.12501 2.89997C7.37501 2.64997 7.66668 2.52497 8.00001 2.52497C8.33335 2.52497 8.62501 2.64997 8.87501 2.89997Z" fill="#E3E3E3"/>
</svg>
