<svg width="41" height="41" viewBox="0 0 41 41" fill="none" xmlns="http://www.w3.org/2000/svg">
<path d="M17.9127 11.5026C18.8797 11.5026 19.6627 12.2866 19.6627 13.2526V16.7526C19.6627 17.2167 19.4783 17.6618 19.1501 17.99C18.8219 18.3182 18.3768 18.5026 17.9127 18.5026H12.4167C11.9525 18.5026 11.5074 18.3182 11.1792 17.99C10.851 17.6618 10.6667 17.2167 10.6667 16.7526V13.2526C10.6667 12.2866 11.4507 11.5026 12.4167 11.5026H17.9127ZM28.9167 11.5026C29.8827 11.5026 30.6667 12.2866 30.6667 13.2526V16.7526C30.6667 17.2167 30.4823 17.6618 30.1541 17.99C29.8259 18.3182 29.3808 18.5026 28.9167 18.5026H23.4207C22.9565 18.5026 22.5114 18.3182 22.1832 17.99C21.855 17.6618 21.6707 17.2167 21.6707 16.7526V13.2526C21.6707 12.2866 22.4537 11.5026 23.4207 11.5026H28.9167ZM28.9167 0.497559C29.8827 0.497559 30.6667 1.28156 30.6667 2.24756V7.75056C30.6668 7.98046 30.6216 8.20813 30.5337 8.42056C30.4458 8.633 30.317 8.82603 30.1544 8.98864C29.9919 9.15125 29.799 9.28024 29.5866 9.36825C29.3742 9.45626 29.1466 9.50156 28.9167 9.50156H12.4167C11.9525 9.50156 11.5074 9.31718 11.1792 8.989C10.851 8.66081 10.6667 8.21569 10.6667 7.75156V2.24756C10.6667 1.80837 10.8318 1.38524 11.1293 1.06217C11.4268 0.739094 11.835 0.539698 12.2727 0.503559L12.4167 0.497559H28.9167Z" fill="url(#paint0_linear_319_124)"/>
<path d="M1.8426 33.5026V26.5026H3.0626V33.5026H1.8426ZM8.58921 30.3426V33.5026H7.36921V30.6626C7.36921 30.4659 7.32088 30.2876 7.22421 30.1276C7.12754 29.9642 6.99754 29.8359 6.83421 29.7426C6.67421 29.6459 6.49588 29.5976 6.29921 29.5976C6.10254 29.5976 5.92254 29.6459 5.75921 29.7426C5.59921 29.8359 5.47088 29.9642 5.37421 30.1276C5.28088 30.2876 5.23421 30.4659 5.23421 30.6626V33.5026H4.01421L4.00921 28.5026H5.22921L5.23421 28.9476C5.40421 28.7676 5.60754 28.6259 5.84421 28.5226C6.08088 28.4159 6.33588 28.3626 6.60921 28.3626C6.97254 28.3626 7.30421 28.4526 7.60421 28.6326C7.90421 28.8092 8.14254 29.0476 8.31921 29.3476C8.49921 29.6442 8.58921 29.9759 8.58921 30.3426ZM10.5924 27.4526V28.5026H11.9574V29.7226H10.5924V33.5026H9.37238V29.7226H8.82738V28.5026H9.37238V27.4526C9.37238 27.1659 9.44238 26.9042 9.58238 26.6676C9.72572 26.4276 9.91738 26.2376 10.1574 26.0976C10.3974 25.9542 10.6624 25.8826 10.9524 25.8826C11.1624 25.8826 11.3707 25.9259 11.5774 26.0126C11.784 26.0992 11.9674 26.2326 12.1274 26.4126L11.2474 27.2726C11.2174 27.2159 11.174 27.1742 11.1174 27.1476C11.064 27.1176 11.009 27.1026 10.9524 27.1026C10.8557 27.1026 10.7707 27.1376 10.6974 27.2076C10.6274 27.2742 10.5924 27.3559 10.5924 27.4526ZM14.4752 33.6326C14.0152 33.6326 13.5952 33.5142 13.2152 33.2776C12.8386 33.0409 12.5369 32.7242 12.3102 32.3276C12.0869 31.9276 11.9752 31.4859 11.9752 31.0026C11.9752 30.6359 12.0402 30.2942 12.1702 29.9776C12.3002 29.6576 12.4786 29.3776 12.7052 29.1376C12.9352 28.8942 13.2019 28.7042 13.5052 28.5676C13.8086 28.4309 14.1319 28.3626 14.4752 28.3626C14.9352 28.3626 15.3536 28.4809 15.7302 28.7176C16.1102 28.9542 16.4119 29.2726 16.6352 29.6726C16.8619 30.0726 16.9752 30.5159 16.9752 31.0026C16.9752 31.3659 16.9102 31.7059 16.7802 32.0226C16.6502 32.3392 16.4702 32.6192 16.2402 32.8626C16.0136 33.1026 15.7486 33.2909 15.4452 33.4276C15.1452 33.5642 14.8219 33.6326 14.4752 33.6326ZM14.4752 32.4126C14.7186 32.4126 14.9369 32.3476 15.1302 32.2176C15.3236 32.0876 15.4752 31.9159 15.5852 31.7026C15.6986 31.4892 15.7552 31.2559 15.7552 31.0026C15.7552 30.7426 15.6969 30.5059 15.5802 30.2926C15.4669 30.0759 15.3119 29.9042 15.1152 29.7776C14.9219 29.6476 14.7086 29.5826 14.4752 29.5826C14.2352 29.5826 14.0186 29.6476 13.8252 29.7776C13.6319 29.9076 13.4786 30.0809 13.3652 30.2976C13.2519 30.5142 13.1952 30.7492 13.1952 31.0026C13.1952 31.2659 13.2536 31.5042 13.3702 31.7176C13.4869 31.9309 13.6419 32.1009 13.8352 32.2276C14.0319 32.3509 14.2452 32.4126 14.4752 32.4126ZM19.4573 33.5026V26.5026H21.9573C22.3373 26.5026 22.6806 26.5976 22.9873 26.7876C23.2973 26.9776 23.5423 27.2326 23.7223 27.5526C23.9023 27.8726 23.9923 28.2242 23.9923 28.6076C23.9923 29.0009 23.899 29.3576 23.7123 29.6776C23.529 29.9942 23.2823 30.2476 22.9723 30.4376C22.6623 30.6242 22.324 30.7176 21.9573 30.7176H20.6773V33.5026H19.4573ZM20.6773 29.4976H21.8273C22.0006 29.4976 22.159 29.4542 22.3023 29.3676C22.4456 29.2809 22.559 29.1642 22.6423 29.0176C22.729 28.8709 22.7723 28.7076 22.7723 28.5276C22.7723 28.3442 22.729 28.1792 22.6423 28.0326C22.559 27.8859 22.4456 27.7692 22.3023 27.6826C22.159 27.5959 22.0006 27.5526 21.8273 27.5526H20.6773V29.4976ZM27.9267 28.5026H29.1467V33.5026H27.9267L27.8717 32.8826C27.735 33.1059 27.5534 33.2876 27.3267 33.4276C27.1034 33.5642 26.8384 33.6326 26.5317 33.6326C26.1617 33.6326 25.815 33.5626 25.4917 33.4226C25.1684 33.2826 24.8834 33.0892 24.6367 32.8426C24.3934 32.5959 24.2017 32.3109 24.0617 31.9876C23.925 31.6642 23.8567 31.3176 23.8567 30.9476C23.8567 30.5909 23.9217 30.2559 24.0517 29.9426C24.185 29.6292 24.37 29.3542 24.6067 29.1176C24.8434 28.8809 25.1167 28.6959 25.4267 28.5626C25.7367 28.4292 26.07 28.3626 26.4267 28.3626C26.7567 28.3626 27.0517 28.4359 27.3117 28.5826C27.575 28.7292 27.7984 28.9159 27.9817 29.1426L27.9267 28.5026ZM26.5017 32.4576C26.7617 32.4576 26.9917 32.3926 27.1917 32.2626C27.3917 32.1326 27.5484 31.9576 27.6617 31.7376C27.775 31.5142 27.8317 31.2692 27.8317 31.0026C27.8317 30.7326 27.775 30.4876 27.6617 30.2676C27.5484 30.0442 27.39 29.8676 27.1867 29.7376C26.9867 29.6076 26.7584 29.5426 26.5017 29.5426C26.245 29.5426 26.01 29.6092 25.7967 29.7426C25.5867 29.8726 25.4184 30.0476 25.2917 30.2676C25.1684 30.4876 25.1067 30.7326 25.1067 31.0026C25.1067 31.2726 25.17 31.5176 25.2967 31.7376C25.4234 31.9576 25.5917 32.1326 25.8017 32.2626C26.015 32.3926 26.2484 32.4576 26.5017 32.4576ZM33.3474 28.5026H34.5674V33.5976C34.5674 33.9576 34.4941 34.2842 34.3474 34.5776C34.2007 34.8742 34.0007 35.1276 33.7474 35.3376C33.4941 35.5509 33.2041 35.7142 32.8774 35.8276C32.5507 35.9442 32.2074 36.0026 31.8474 36.0026C31.4974 36.0026 31.1607 35.9309 30.8374 35.7876C30.5141 35.6442 30.2274 35.4476 29.9774 35.1976C29.7307 34.9509 29.5424 34.6692 29.4124 34.3526L30.5274 33.8476C30.5941 34.0309 30.6941 34.1909 30.8274 34.3276C30.9641 34.4676 31.1207 34.5759 31.2974 34.6526C31.4741 34.7326 31.6574 34.7726 31.8474 34.7726C32.0407 34.7726 32.2257 34.7459 32.4024 34.6926C32.5824 34.6392 32.7441 34.5609 32.8874 34.4576C33.0307 34.3576 33.1424 34.2342 33.2224 34.0876C33.3057 33.9442 33.3474 33.7809 33.3474 33.5976V32.8926C33.1907 33.1126 32.9941 33.2909 32.7574 33.4276C32.5207 33.5642 32.2474 33.6326 31.9374 33.6326C31.5774 33.6326 31.2407 33.5642 30.9274 33.4276C30.6141 33.2909 30.3374 33.1026 30.0974 32.8626C29.8607 32.6192 29.6741 32.3392 29.5374 32.0226C29.4041 31.7059 29.3374 31.3659 29.3374 31.0026C29.3374 30.6392 29.4041 30.2992 29.5374 29.9826C29.6741 29.6659 29.8607 29.3876 30.0974 29.1476C30.3374 28.9042 30.6141 28.7142 30.9274 28.5776C31.2407 28.4409 31.5774 28.3726 31.9374 28.3726C32.2474 28.3726 32.5207 28.4409 32.7574 28.5776C32.9941 28.7109 33.1907 28.8876 33.3474 29.1076V28.5026ZM31.9524 32.4576C32.2091 32.4576 32.4357 32.3926 32.6324 32.2626C32.8324 32.1292 32.9891 31.9526 33.1024 31.7326C33.2157 31.5092 33.2724 31.2659 33.2724 31.0026C33.2724 30.7359 33.2141 30.4926 33.0974 30.2726C32.9841 30.0526 32.8274 29.8759 32.6274 29.7426C32.4307 29.6092 32.2057 29.5426 31.9524 29.5426C31.7024 29.5426 31.4741 29.6092 31.2674 29.7426C31.0607 29.8726 30.8957 30.0476 30.7724 30.2676C30.6491 30.4876 30.5874 30.7326 30.5874 31.0026C30.5874 31.2726 30.6491 31.5176 30.7724 31.7376C30.8957 31.9576 31.0607 32.1326 31.2674 32.2626C31.4741 32.3926 31.7024 32.4576 31.9524 32.4576ZM37.445 33.6326C36.985 33.6326 36.565 33.5142 36.185 33.2776C35.8083 33.0409 35.5067 32.7226 35.28 32.3226C35.0567 31.9226 34.945 31.4809 34.945 30.9976C34.945 30.6342 35.01 30.2942 35.14 29.9776C35.27 29.6576 35.4483 29.3776 35.675 29.1376C35.905 28.8942 36.1717 28.7042 36.475 28.5676C36.7783 28.4309 37.1017 28.3626 37.445 28.3626C37.835 28.3626 38.1917 28.4459 38.515 28.6126C38.8417 28.7759 39.1183 29.0009 39.345 29.2876C39.5717 29.5742 39.7367 29.9009 39.84 30.2676C39.9433 30.6342 39.9667 31.0176 39.91 31.4176H36.255C36.3017 31.6042 36.3783 31.7726 36.485 31.9226C36.5917 32.0692 36.7267 32.1876 36.89 32.2776C37.0533 32.3642 37.2383 32.4092 37.445 32.4126C37.6583 32.4159 37.8517 32.3659 38.025 32.2626C38.2017 32.1559 38.3483 32.0126 38.465 31.8326L39.71 32.1226C39.5067 32.5659 39.2033 32.9292 38.8 33.2126C38.3967 33.4926 37.945 33.6326 37.445 33.6326ZM36.215 30.5026H38.675C38.6383 30.3026 38.56 30.1226 38.44 29.9626C38.3233 29.7992 38.1783 29.6692 38.005 29.5726C37.8317 29.4759 37.645 29.4276 37.445 29.4276C37.245 29.4276 37.06 29.4759 36.89 29.5726C36.72 29.6659 36.575 29.7942 36.455 29.9576C36.3383 30.1176 36.2583 30.2992 36.215 30.5026Z" fill="url(#paint1_linear_319_124)"/>
<defs>
<linearGradient id="paint0_linear_319_124" x1="10.6667" y1="9.50022" x2="30.6667" y2="9.50022" gradientUnits="userSpaceOnUse">
<stop stop-color="#7FDDFF"/>
<stop offset="1" stop-color="#8354FF"/>
</linearGradient>
<linearGradient id="paint1_linear_319_124" x1="0.666656" y1="29.5028" x2="40.6667" y2="29.5028" gradientUnits="userSpaceOnUse">
<stop stop-color="#7FDDFF"/>
<stop offset="1" stop-color="#8354FF"/>
</linearGradient>
</defs>
</svg>
