<svg width="38" height="42" viewBox="0 0 38 42" fill="none" xmlns="http://www.w3.org/2000/svg">
<path d="M19 10.5C17.7625 10.5 16.7031 10.043 15.8219 9.12913C14.9406 8.21524 14.5 7.11663 14.5 5.83329C14.5 4.54996 14.9406 3.45135 15.8219 2.53746C16.7031 1.62357 17.7625 1.16663 19 1.16663C20.2375 1.16663 21.2969 1.62357 22.1781 2.53746C23.0594 3.45135 23.5 4.54996 23.5 5.83329C23.5 7.11663 23.0594 8.21524 22.1781 9.12913C21.2969 10.043 20.2375 10.5 19 10.5ZM10 19.8333V16.5666C10 15.9055 10.1643 15.2977 10.4928 14.7431C10.8213 14.1886 11.257 13.7658 11.8 13.475C12.9625 12.8722 14.1437 12.4199 15.3438 12.1181C16.5438 11.8163 17.7625 11.6658 19 11.6666C20.2375 11.6666 21.4563 11.8175 22.6562 12.1193C23.8562 12.4211 25.0375 12.873 26.2 13.475C26.7437 13.7666 27.1799 14.1897 27.5084 14.7443C27.8369 15.2988 28.0007 15.9063 28 16.5666V19.8333H10Z" fill="white" stroke="#8A8A8A"/>
<path d="M1.06814 34.8333L2.42814 27.8333H3.43814L5.14314 32.3183L6.84814 27.8333H7.85814L9.21814 34.8333H7.97314L7.13314 30.5033L5.55814 34.6733H4.72314L3.14814 30.5033L2.31314 34.8333H1.06814ZM12.8694 29.8333H14.1644L11.4294 37.3333H10.1344L11.0394 34.8333L9.23944 29.8333H10.5744L11.6494 33.1633L12.8694 29.8333ZM16.7484 34.8333V27.8333H19.2484C19.6284 27.8333 19.9718 27.9283 20.2784 28.1183C20.5884 28.3083 20.8334 28.5633 21.0134 28.8833C21.1934 29.2033 21.2834 29.5549 21.2834 29.9383C21.2834 30.3316 21.1901 30.6883 21.0034 31.0083C20.8201 31.3249 20.5734 31.5783 20.2634 31.7683C19.9534 31.9549 19.6151 32.0483 19.2484 32.0483H17.9684V34.8333H16.7484ZM17.9684 30.8283H19.1184C19.2918 30.8283 19.4501 30.7849 19.5934 30.6983C19.7368 30.6116 19.8501 30.4949 19.9334 30.3483C20.0201 30.2016 20.0634 30.0383 20.0634 29.8583C20.0634 29.6749 20.0201 29.5099 19.9334 29.3633C19.8501 29.2166 19.7368 29.0999 19.5934 29.0133C19.4501 28.9266 19.2918 28.8833 19.1184 28.8833H17.9684V30.8283ZM25.2179 29.8333H26.4379V34.8333H25.2179L25.1629 34.2133C25.0262 34.4366 24.8445 34.6183 24.6179 34.7583C24.3945 34.8949 24.1295 34.9633 23.8229 34.9633C23.4529 34.9633 23.1062 34.8933 22.7829 34.7533C22.4595 34.6133 22.1745 34.4199 21.9279 34.1733C21.6845 33.9266 21.4929 33.6416 21.3529 33.3183C21.2162 32.9949 21.1479 32.6483 21.1479 32.2783C21.1479 31.9216 21.2129 31.5866 21.3429 31.2733C21.4762 30.9599 21.6612 30.6849 21.8979 30.4483C22.1345 30.2116 22.4079 30.0266 22.7179 29.8933C23.0279 29.7599 23.3612 29.6933 23.7179 29.6933C24.0479 29.6933 24.3429 29.7666 24.6029 29.9133C24.8662 30.0599 25.0895 30.2466 25.2729 30.4733L25.2179 29.8333ZM23.7929 33.7883C24.0529 33.7883 24.2829 33.7233 24.4829 33.5933C24.6829 33.4633 24.8395 33.2883 24.9529 33.0683C25.0662 32.8449 25.1229 32.5999 25.1229 32.3333C25.1229 32.0633 25.0662 31.8183 24.9529 31.5983C24.8395 31.3749 24.6812 31.1983 24.4779 31.0683C24.2779 30.9383 24.0495 30.8733 23.7929 30.8733C23.5362 30.8733 23.3012 30.9399 23.0879 31.0733C22.8779 31.2033 22.7095 31.3783 22.5829 31.5983C22.4595 31.8183 22.3979 32.0633 22.3979 32.3333C22.3979 32.6033 22.4612 32.8483 22.5879 33.0683C22.7145 33.2883 22.8829 33.4633 23.0929 33.5933C23.3062 33.7233 23.5395 33.7883 23.7929 33.7883ZM30.6385 29.8333H31.8585V34.9283C31.8585 35.2883 31.7852 35.6149 31.6385 35.9083C31.4919 36.2049 31.2919 36.4583 31.0385 36.6683C30.7852 36.8816 30.4952 37.0449 30.1685 37.1583C29.8419 37.2749 29.4985 37.3333 29.1385 37.3333C28.7885 37.3333 28.4519 37.2616 28.1285 37.1183C27.8052 36.9749 27.5185 36.7783 27.2685 36.5283C27.0219 36.2816 26.8335 35.9999 26.7035 35.6833L27.8185 35.1783C27.8852 35.3616 27.9852 35.5216 28.1185 35.6583C28.2552 35.7983 28.4119 35.9066 28.5885 35.9833C28.7652 36.0633 28.9485 36.1033 29.1385 36.1033C29.3319 36.1033 29.5169 36.0766 29.6935 36.0233C29.8735 35.9699 30.0352 35.8916 30.1785 35.7883C30.3219 35.6883 30.4335 35.5649 30.5135 35.4183C30.5969 35.2749 30.6385 35.1116 30.6385 34.9283V34.2233C30.4819 34.4433 30.2852 34.6216 30.0485 34.7583C29.8119 34.8949 29.5385 34.9633 29.2285 34.9633C28.8685 34.9633 28.5319 34.8949 28.2185 34.7583C27.9052 34.6216 27.6285 34.4333 27.3885 34.1933C27.1519 33.9499 26.9652 33.6699 26.8285 33.3533C26.6952 33.0366 26.6285 32.6966 26.6285 32.3333C26.6285 31.9699 26.6952 31.6299 26.8285 31.3133C26.9652 30.9966 27.1519 30.7183 27.3885 30.4783C27.6285 30.2349 27.9052 30.0449 28.2185 29.9083C28.5319 29.7716 28.8685 29.7033 29.2285 29.7033C29.5385 29.7033 29.8119 29.7716 30.0485 29.9083C30.2852 30.0416 30.4819 30.2183 30.6385 30.4383V29.8333ZM29.2435 33.7883C29.5002 33.7883 29.7269 33.7233 29.9235 33.5933C30.1235 33.4599 30.2802 33.2833 30.3935 33.0633C30.5069 32.8399 30.5635 32.5966 30.5635 32.3333C30.5635 32.0666 30.5052 31.8233 30.3885 31.6033C30.2752 31.3833 30.1185 31.2066 29.9185 31.0733C29.7219 30.9399 29.4969 30.8733 29.2435 30.8733C28.9935 30.8733 28.7652 30.9399 28.5585 31.0733C28.3519 31.2033 28.1869 31.3783 28.0635 31.5983C27.9402 31.8183 27.8785 32.0633 27.8785 32.3333C27.8785 32.6033 27.9402 32.8483 28.0635 33.0683C28.1869 33.2883 28.3519 33.4633 28.5585 33.5933C28.7652 33.7233 28.9935 33.7883 29.2435 33.7883ZM34.7362 34.9633C34.2762 34.9633 33.8562 34.8449 33.4762 34.6083C33.0995 34.3716 32.7978 34.0533 32.5712 33.6533C32.3478 33.2533 32.2362 32.8116 32.2362 32.3283C32.2362 31.9649 32.3012 31.6249 32.4312 31.3083C32.5612 30.9883 32.7395 30.7083 32.9662 30.4683C33.1962 30.2249 33.4628 30.0349 33.7662 29.8983C34.0695 29.7616 34.3928 29.6933 34.7362 29.6933C35.1262 29.6933 35.4828 29.7766 35.8062 29.9433C36.1328 30.1066 36.4095 30.3316 36.6362 30.6183C36.8628 30.9049 37.0278 31.2316 37.1312 31.5983C37.2345 31.9649 37.2578 32.3483 37.2012 32.7483H33.5462C33.5928 32.9349 33.6695 33.1033 33.7762 33.2533C33.8828 33.3999 34.0178 33.5183 34.1812 33.6083C34.3445 33.6949 34.5295 33.7399 34.7362 33.7433C34.9495 33.7466 35.1428 33.6966 35.3162 33.5933C35.4928 33.4866 35.6395 33.3433 35.7562 33.1633L37.0012 33.4533C36.7978 33.8966 36.4945 34.2599 36.0912 34.5433C35.6878 34.8233 35.2362 34.9633 34.7362 34.9633ZM33.5062 31.8333H35.9662C35.9295 31.6333 35.8512 31.4533 35.7312 31.2933C35.6145 31.1299 35.4695 30.9999 35.2962 30.9033C35.1228 30.8066 34.9362 30.7583 34.7362 30.7583C34.5362 30.7583 34.3512 30.8066 34.1812 30.9033C34.0112 30.9966 33.8662 31.1249 33.7462 31.2883C33.6295 31.4483 33.5495 31.6299 33.5062 31.8333Z" fill="#8A8A8A"/>
</svg>
