<svg width="38" height="42" viewBox="0 0 38 42" fill="none" xmlns="http://www.w3.org/2000/svg">
<path d="M19 10.5C17.7625 10.5 16.7031 10.0431 15.8219 9.12919C14.9406 8.2153 14.5 7.11669 14.5 5.83335C14.5 4.55002 14.9406 3.45141 15.8219 2.53752C16.7031 1.62363 17.7625 1.16669 19 1.16669C20.2375 1.16669 21.2969 1.62363 22.1781 2.53752C23.0594 3.45141 23.5 4.55002 23.5 5.83335C23.5 7.11669 23.0594 8.2153 22.1781 9.12919C21.2969 10.0431 20.2375 10.5 19 10.5ZM10 19.8334V16.5667C10 15.9056 10.1643 15.2977 10.4928 14.7432C10.8213 14.1886 11.257 13.7659 11.8 13.475C12.9625 12.8722 14.1437 12.42 15.3438 12.1182C16.5438 11.8164 17.7625 11.6659 19 11.6667C20.2375 11.6667 21.4562 11.8176 22.6562 12.1194C23.8563 12.4211 25.0375 12.873 26.2 13.475C26.7437 13.7667 27.1799 14.1898 27.5084 14.7444C27.8369 15.2989 28.0007 15.9064 28 16.5667V19.8334H10Z" fill="white" stroke="#8A8A8A"/>
<path d="M1.06814 34.8334L2.42814 27.8334H3.43814L5.14314 32.3184L6.84814 27.8334H7.85814L9.21814 34.8334H7.97314L7.13314 30.5034L5.55814 34.6734H4.72314L3.14814 30.5034L2.31314 34.8334H1.06814ZM12.8694 29.8334H14.1644L11.4294 37.3334H10.1344L11.0394 34.8334L9.23944 29.8334H10.5744L11.6494 33.1634L12.8694 29.8334ZM16.7484 34.8334V27.8334H19.2484C19.6284 27.8334 19.9718 27.9284 20.2784 28.1184C20.5884 28.3084 20.8334 28.5634 21.0134 28.8834C21.1934 29.2034 21.2834 29.555 21.2834 29.9384C21.2834 30.3317 21.1901 30.6884 21.0034 31.0084C20.8201 31.325 20.5734 31.5784 20.2634 31.7684C19.9534 31.955 19.6151 32.0484 19.2484 32.0484H17.9684V34.8334H16.7484ZM17.9684 30.8284H19.1184C19.2918 30.8284 19.4501 30.785 19.5934 30.6984C19.7368 30.6117 19.8501 30.495 19.9334 30.3484C20.0201 30.2017 20.0634 30.0384 20.0634 29.8584C20.0634 29.675 20.0201 29.51 19.9334 29.3634C19.8501 29.2167 19.7368 29.1 19.5934 29.0134C19.4501 28.9267 19.2918 28.8834 19.1184 28.8834H17.9684V30.8284ZM25.2179 29.8334H26.4379V34.8334H25.2179L25.1629 34.2134C25.0262 34.4367 24.8445 34.6184 24.6179 34.7584C24.3945 34.895 24.1295 34.9634 23.8229 34.9634C23.4529 34.9634 23.1062 34.8934 22.7829 34.7534C22.4595 34.6134 22.1745 34.42 21.9279 34.1734C21.6845 33.9267 21.4929 33.6417 21.3529 33.3184C21.2162 32.995 21.1479 32.6484 21.1479 32.2784C21.1479 31.9217 21.2129 31.5867 21.3429 31.2734C21.4762 30.96 21.6612 30.685 21.8979 30.4484C22.1345 30.2117 22.4079 30.0267 22.7179 29.8934C23.0279 29.76 23.3612 29.6934 23.7179 29.6934C24.0479 29.6934 24.3429 29.7667 24.6029 29.9134C24.8662 30.06 25.0895 30.2467 25.2729 30.4734L25.2179 29.8334ZM23.7929 33.7884C24.0529 33.7884 24.2829 33.7234 24.4829 33.5934C24.6829 33.4634 24.8395 33.2884 24.9529 33.0684C25.0662 32.845 25.1229 32.6 25.1229 32.3334C25.1229 32.0634 25.0662 31.8184 24.9529 31.5984C24.8395 31.375 24.6812 31.1984 24.4779 31.0684C24.2779 30.9384 24.0495 30.8734 23.7929 30.8734C23.5362 30.8734 23.3012 30.94 23.0879 31.0734C22.8779 31.2034 22.7095 31.3784 22.5829 31.5984C22.4595 31.8184 22.3979 32.0634 22.3979 32.3334C22.3979 32.6034 22.4612 32.8484 22.5879 33.0684C22.7145 33.2884 22.8829 33.4634 23.0929 33.5934C23.3062 33.7234 23.5395 33.7884 23.7929 33.7884ZM30.6385 29.8334H31.8585V34.9284C31.8585 35.2884 31.7852 35.615 31.6385 35.9084C31.4919 36.205 31.2919 36.4584 31.0385 36.6684C30.7852 36.8817 30.4952 37.045 30.1685 37.1584C29.8419 37.275 29.4985 37.3334 29.1385 37.3334C28.7885 37.3334 28.4519 37.2617 28.1285 37.1184C27.8052 36.975 27.5185 36.7784 27.2685 36.5284C27.0219 36.2817 26.8335 36 26.7035 35.6834L27.8185 35.1784C27.8852 35.3617 27.9852 35.5217 28.1185 35.6584C28.2552 35.7984 28.4119 35.9067 28.5885 35.9834C28.7652 36.0634 28.9485 36.1034 29.1385 36.1034C29.3319 36.1034 29.5169 36.0767 29.6935 36.0234C29.8735 35.97 30.0352 35.8917 30.1785 35.7884C30.3219 35.6884 30.4335 35.565 30.5135 35.4184C30.5969 35.275 30.6385 35.1117 30.6385 34.9284V34.2234C30.4819 34.4434 30.2852 34.6217 30.0485 34.7584C29.8119 34.895 29.5385 34.9634 29.2285 34.9634C28.8685 34.9634 28.5319 34.895 28.2185 34.7584C27.9052 34.6217 27.6285 34.4334 27.3885 34.1934C27.1519 33.95 26.9652 33.67 26.8285 33.3534C26.6952 33.0367 26.6285 32.6967 26.6285 32.3334C26.6285 31.97 26.6952 31.63 26.8285 31.3134C26.9652 30.9967 27.1519 30.7184 27.3885 30.4784C27.6285 30.235 27.9052 30.045 28.2185 29.9084C28.5319 29.7717 28.8685 29.7034 29.2285 29.7034C29.5385 29.7034 29.8119 29.7717 30.0485 29.9084C30.2852 30.0417 30.4819 30.2184 30.6385 30.4384V29.8334ZM29.2435 33.7884C29.5002 33.7884 29.7269 33.7234 29.9235 33.5934C30.1235 33.46 30.2802 33.2834 30.3935 33.0634C30.5069 32.84 30.5635 32.5967 30.5635 32.3334C30.5635 32.0667 30.5052 31.8234 30.3885 31.6034C30.2752 31.3834 30.1185 31.2067 29.9185 31.0734C29.7219 30.94 29.4969 30.8734 29.2435 30.8734C28.9935 30.8734 28.7652 30.94 28.5585 31.0734C28.3519 31.2034 28.1869 31.3784 28.0635 31.5984C27.9402 31.8184 27.8785 32.0634 27.8785 32.3334C27.8785 32.6034 27.9402 32.8484 28.0635 33.0684C28.1869 33.2884 28.3519 33.4634 28.5585 33.5934C28.7652 33.7234 28.9935 33.7884 29.2435 33.7884ZM34.7362 34.9634C34.2762 34.9634 33.8562 34.845 33.4762 34.6084C33.0995 34.3717 32.7978 34.0534 32.5712 33.6534C32.3478 33.2534 32.2362 32.8117 32.2362 32.3284C32.2362 31.965 32.3012 31.625 32.4312 31.3084C32.5612 30.9884 32.7395 30.7084 32.9662 30.4684C33.1962 30.225 33.4628 30.035 33.7662 29.8984C34.0695 29.7617 34.3928 29.6934 34.7362 29.6934C35.1262 29.6934 35.4828 29.7767 35.8062 29.9434C36.1328 30.1067 36.4095 30.3317 36.6362 30.6184C36.8628 30.905 37.0278 31.2317 37.1312 31.5984C37.2345 31.965 37.2578 32.3484 37.2012 32.7484H33.5462C33.5928 32.935 33.6695 33.1034 33.7762 33.2534C33.8828 33.4 34.0178 33.5184 34.1812 33.6084C34.3445 33.695 34.5295 33.74 34.7362 33.7434C34.9495 33.7467 35.1428 33.6967 35.3162 33.5934C35.4928 33.4867 35.6395 33.3434 35.7562 33.1634L37.0012 33.4534C36.7978 33.8967 36.4945 34.26 36.0912 34.5434C35.6878 34.8234 35.2362 34.9634 34.7362 34.9634ZM33.5062 31.8334H35.9662C35.9295 31.6334 35.8512 31.4534 35.7312 31.2934C35.6145 31.13 35.4695 31 35.2962 30.9034C35.1228 30.8067 34.9362 30.7584 34.7362 30.7584C34.5362 30.7584 34.3512 30.8067 34.1812 30.9034C34.0112 30.9967 33.8662 31.125 33.7462 31.2884C33.6295 31.4484 33.5495 31.63 33.5062 31.8334Z" fill="#8A8A8A"/>
</svg>
