<svg width="41" height="42" viewBox="0 0 41 42" fill="none" xmlns="http://www.w3.org/2000/svg">
<path d="M17.9126 12.5026C18.8796 12.5026 19.6626 13.2866 19.6626 14.2526V17.7526C19.6626 18.2167 19.4783 18.6618 19.1501 18.99C18.8219 19.3182 18.3768 19.5026 17.9126 19.5026H12.4166C11.9525 19.5026 11.5074 19.3182 11.1792 18.99C10.851 18.6618 10.6666 18.2167 10.6666 17.7526V14.2526C10.6666 13.2866 11.4506 12.5026 12.4166 12.5026H17.9126ZM28.9166 12.5026C29.8826 12.5026 30.6666 13.2866 30.6666 14.2526V17.7526C30.6666 18.2167 30.4823 18.6618 30.1541 18.99C29.8259 19.3182 29.3808 19.5026 28.9166 19.5026H23.4206C22.9565 19.5026 22.5114 19.3182 22.1832 18.99C21.855 18.6618 21.6706 18.2167 21.6706 17.7526V14.2526C21.6706 13.2866 22.4536 12.5026 23.4206 12.5026H28.9166ZM28.9166 1.49756C29.8826 1.49756 30.6666 2.28156 30.6666 3.24756V8.75056C30.6668 8.98046 30.6216 9.20813 30.5337 9.42056C30.4458 9.633 30.3169 9.82603 30.1544 9.98864C29.9919 10.1513 29.7989 10.2802 29.5866 10.3683C29.3742 10.4563 29.1465 10.5016 28.9166 10.5016H12.4166C11.9525 10.5016 11.5074 10.3172 11.1792 9.989C10.851 9.66081 10.6666 9.21569 10.6666 8.75156V3.24756C10.6666 2.80837 10.8318 2.38524 11.1293 2.06217C11.4268 1.73909 11.8349 1.5397 12.2726 1.50356L12.4166 1.49756H28.9166Z" stroke="#8A8A8A"/>
<path d="M1.84257 34.5026V27.5026H3.06257V34.5026H1.84257ZM8.58918 31.3426V34.5026H7.36918V31.6626C7.36918 31.4659 7.32085 31.2876 7.22418 31.1276C7.12751 30.9642 6.99751 30.8359 6.83418 30.7426C6.67418 30.6459 6.49585 30.5976 6.29918 30.5976C6.10251 30.5976 5.92251 30.6459 5.75918 30.7426C5.59918 30.8359 5.47085 30.9642 5.37418 31.1276C5.28085 31.2876 5.23418 31.4659 5.23418 31.6626V34.5026H4.01418L4.00918 29.5026H5.22918L5.23418 29.9476C5.40418 29.7676 5.60751 29.6259 5.84418 29.5226C6.08085 29.4159 6.33585 29.3626 6.60918 29.3626C6.97251 29.3626 7.30418 29.4526 7.60418 29.6326C7.90418 29.8092 8.14251 30.0476 8.31918 30.3476C8.49918 30.6442 8.58918 30.9759 8.58918 31.3426ZM10.5924 28.4526V29.5026H11.9574V30.7226H10.5924V34.5026H9.37235V30.7226H8.82735V29.5026H9.37235V28.4526C9.37235 28.1659 9.44235 27.9042 9.58235 27.6676C9.72569 27.4276 9.91735 27.2376 10.1574 27.0976C10.3974 26.9542 10.6624 26.8826 10.9524 26.8826C11.1624 26.8826 11.3707 26.9259 11.5774 27.0126C11.784 27.0992 11.9674 27.2326 12.1274 27.4126L11.2474 28.2726C11.2174 28.2159 11.174 28.1742 11.1174 28.1476C11.064 28.1176 11.009 28.1026 10.9524 28.1026C10.8557 28.1026 10.7707 28.1376 10.6974 28.2076C10.6274 28.2742 10.5924 28.3559 10.5924 28.4526ZM14.4752 34.6326C14.0152 34.6326 13.5952 34.5142 13.2152 34.2776C12.8385 34.0409 12.5369 33.7242 12.3102 33.3276C12.0869 32.9276 11.9752 32.4859 11.9752 32.0026C11.9752 31.6359 12.0402 31.2942 12.1702 30.9776C12.3002 30.6576 12.4785 30.3776 12.7052 30.1376C12.9352 29.8942 13.2019 29.7042 13.5052 29.5676C13.8085 29.4309 14.1319 29.3626 14.4752 29.3626C14.9352 29.3626 15.3535 29.4809 15.7302 29.7176C16.1102 29.9542 16.4119 30.2726 16.6352 30.6726C16.8619 31.0726 16.9752 31.5159 16.9752 32.0026C16.9752 32.3659 16.9102 32.7059 16.7802 33.0226C16.6502 33.3392 16.4702 33.6192 16.2402 33.8626C16.0135 34.1026 15.7485 34.2909 15.4452 34.4276C15.1452 34.5642 14.8219 34.6326 14.4752 34.6326ZM14.4752 33.4126C14.7185 33.4126 14.9369 33.3476 15.1302 33.2176C15.3235 33.0876 15.4752 32.9159 15.5852 32.7026C15.6985 32.4892 15.7552 32.2559 15.7552 32.0026C15.7552 31.7426 15.6969 31.5059 15.5802 31.2926C15.4669 31.0759 15.3119 30.9042 15.1152 30.7776C14.9219 30.6476 14.7085 30.5826 14.4752 30.5826C14.2352 30.5826 14.0185 30.6476 13.8252 30.7776C13.6319 30.9076 13.4785 31.0809 13.3652 31.2976C13.2519 31.5142 13.1952 31.7492 13.1952 32.0026C13.1952 32.2659 13.2535 32.5042 13.3702 32.7176C13.4869 32.9309 13.6419 33.1009 13.8352 33.2276C14.0319 33.3509 14.2452 33.4126 14.4752 33.4126ZM19.4573 34.5026V27.5026H21.9573C22.3373 27.5026 22.6806 27.5976 22.9873 27.7876C23.2973 27.9776 23.5423 28.2326 23.7223 28.5526C23.9023 28.8726 23.9923 29.2242 23.9923 29.6076C23.9923 30.0009 23.8989 30.3576 23.7123 30.6776C23.5289 30.9942 23.2823 31.2476 22.9723 31.4376C22.6623 31.6242 22.3239 31.7176 21.9573 31.7176H20.6773V34.5026H19.4573ZM20.6773 30.4976H21.8273C22.0006 30.4976 22.1589 30.4542 22.3023 30.3676C22.4456 30.2809 22.5589 30.1642 22.6423 30.0176C22.7289 29.8709 22.7723 29.7076 22.7723 29.5276C22.7723 29.3442 22.7289 29.1792 22.6423 29.0326C22.5589 28.8859 22.4456 28.7692 22.3023 28.6826C22.1589 28.5959 22.0006 28.5526 21.8273 28.5526H20.6773V30.4976ZM27.9267 29.5026H29.1467V34.5026H27.9267L27.8717 33.8826C27.735 34.1059 27.5533 34.2876 27.3267 34.4276C27.1033 34.5642 26.8383 34.6326 26.5317 34.6326C26.1617 34.6326 25.815 34.5626 25.4917 34.4226C25.1683 34.2826 24.8833 34.0892 24.6367 33.8426C24.3933 33.5959 24.2017 33.3109 24.0617 32.9876C23.925 32.6642 23.8567 32.3176 23.8567 31.9476C23.8567 31.5909 23.9217 31.2559 24.0517 30.9426C24.185 30.6292 24.37 30.3542 24.6067 30.1176C24.8433 29.8809 25.1167 29.6959 25.4267 29.5626C25.7367 29.4292 26.07 29.3626 26.4267 29.3626C26.7567 29.3626 27.0517 29.4359 27.3117 29.5826C27.575 29.7292 27.7983 29.9159 27.9817 30.1426L27.9267 29.5026ZM26.5017 33.4576C26.7617 33.4576 26.9917 33.3926 27.1917 33.2626C27.3917 33.1326 27.5483 32.9576 27.6617 32.7376C27.775 32.5142 27.8317 32.2692 27.8317 32.0026C27.8317 31.7326 27.775 31.4876 27.6617 31.2676C27.5483 31.0442 27.39 30.8676 27.1867 30.7376C26.9867 30.6076 26.7583 30.5426 26.5017 30.5426C26.245 30.5426 26.01 30.6092 25.7967 30.7426C25.5867 30.8726 25.4183 31.0476 25.2917 31.2676C25.1683 31.4876 25.1067 31.7326 25.1067 32.0026C25.1067 32.2726 25.17 32.5176 25.2967 32.7376C25.4233 32.9576 25.5917 33.1326 25.8017 33.2626C26.015 33.3926 26.2483 33.4576 26.5017 33.4576ZM33.3474 29.5026H34.5674V34.5976C34.5674 34.9576 34.494 35.2842 34.3474 35.5776C34.2007 35.8742 34.0007 36.1276 33.7474 36.3376C33.494 36.5509 33.204 36.7142 32.8774 36.8276C32.5507 36.9442 32.2074 37.0026 31.8474 37.0026C31.4974 37.0026 31.1607 36.9309 30.8374 36.7876C30.514 36.6442 30.2274 36.4476 29.9774 36.1976C29.7307 35.9509 29.5424 35.6692 29.4124 35.3526L30.5274 34.8476C30.594 35.0309 30.694 35.1909 30.8274 35.3276C30.964 35.4676 31.1207 35.5759 31.2974 35.6526C31.474 35.7326 31.6574 35.7726 31.8474 35.7726C32.0407 35.7726 32.2257 35.7459 32.4024 35.6926C32.5824 35.6392 32.744 35.5609 32.8874 35.4576C33.0307 35.3576 33.1424 35.2342 33.2224 35.0876C33.3057 34.9442 33.3474 34.7809 33.3474 34.5976V33.8926C33.1907 34.1126 32.994 34.2909 32.7574 34.4276C32.5207 34.5642 32.2474 34.6326 31.9374 34.6326C31.5774 34.6326 31.2407 34.5642 30.9274 34.4276C30.614 34.2909 30.3374 34.1026 30.0974 33.8626C29.8607 33.6192 29.674 33.3392 29.5374 33.0226C29.404 32.7059 29.3374 32.3659 29.3374 32.0026C29.3374 31.6392 29.404 31.2992 29.5374 30.9826C29.674 30.6659 29.8607 30.3876 30.0974 30.1476C30.3374 29.9042 30.614 29.7142 30.9274 29.5776C31.2407 29.4409 31.5774 29.3726 31.9374 29.3726C32.2474 29.3726 32.5207 29.4409 32.7574 29.5776C32.994 29.7109 33.1907 29.8876 33.3474 30.1076V29.5026ZM31.9524 33.4576C32.209 33.4576 32.4357 33.3926 32.6324 33.2626C32.8324 33.1292 32.989 32.9526 33.1024 32.7326C33.2157 32.5092 33.2724 32.2659 33.2724 32.0026C33.2724 31.7359 33.214 31.4926 33.0974 31.2726C32.984 31.0526 32.8274 30.8759 32.6274 30.7426C32.4307 30.6092 32.2057 30.5426 31.9524 30.5426C31.7024 30.5426 31.474 30.6092 31.2674 30.7426C31.0607 30.8726 30.8957 31.0476 30.7724 31.2676C30.649 31.4876 30.5874 31.7326 30.5874 32.0026C30.5874 32.2726 30.649 32.5176 30.7724 32.7376C30.8957 32.9576 31.0607 33.1326 31.2674 33.2626C31.474 33.3926 31.7024 33.4576 31.9524 33.4576ZM37.445 34.6326C36.985 34.6326 36.565 34.5142 36.185 34.2776C35.8083 34.0409 35.5066 33.7226 35.28 33.3226C35.0566 32.9226 34.945 32.4809 34.945 31.9976C34.945 31.6342 35.01 31.2942 35.14 30.9776C35.27 30.6576 35.4483 30.3776 35.675 30.1376C35.905 29.8942 36.1716 29.7042 36.475 29.5676C36.7783 29.4309 37.1016 29.3626 37.445 29.3626C37.835 29.3626 38.1916 29.4459 38.515 29.6126C38.8416 29.7759 39.1183 30.0009 39.345 30.2876C39.5716 30.5742 39.7366 30.9009 39.84 31.2676C39.9433 31.6342 39.9666 32.0176 39.91 32.4176H36.255C36.3016 32.6042 36.3783 32.7726 36.485 32.9226C36.5916 33.0692 36.7266 33.1876 36.89 33.2776C37.0533 33.3642 37.2383 33.4092 37.445 33.4126C37.6583 33.4159 37.8516 33.3659 38.025 33.2626C38.2016 33.1559 38.3483 33.0126 38.465 32.8326L39.71 33.1226C39.5066 33.5659 39.2033 33.9292 38.8 34.2126C38.3966 34.4926 37.945 34.6326 37.445 34.6326ZM36.215 31.5026H38.675C38.6383 31.3026 38.56 31.1226 38.44 30.9626C38.3233 30.7992 38.1783 30.6692 38.005 30.5726C37.8316 30.4759 37.645 30.4276 37.445 30.4276C37.245 30.4276 37.06 30.4759 36.89 30.5726C36.72 30.6659 36.575 30.7942 36.455 30.9576C36.3383 31.1176 36.2583 31.2992 36.215 31.5026Z" fill="#8A8A8A"/>
</svg>
