<svg width="41" height="42" viewBox="0 0 41 42" fill="none" xmlns="http://www.w3.org/2000/svg">
<path d="M17.9126 12.5025C18.8796 12.5025 19.6626 13.2865 19.6626 14.2525V17.7525C19.6626 18.2166 19.4783 18.6617 19.1501 18.9899C18.8219 19.3181 18.3768 19.5025 17.9126 19.5025H12.4166C11.9525 19.5025 11.5074 19.3181 11.1792 18.9899C10.851 18.6617 10.6666 18.2166 10.6666 17.7525V14.2525C10.6666 13.2865 11.4506 12.5025 12.4166 12.5025H17.9126ZM28.9166 12.5025C29.8826 12.5025 30.6666 13.2865 30.6666 14.2525V17.7525C30.6666 18.2166 30.4823 18.6617 30.1541 18.9899C29.8259 19.3181 29.3808 19.5025 28.9166 19.5025H23.4206C22.9565 19.5025 22.5114 19.3181 22.1832 18.9899C21.855 18.6617 21.6706 18.2166 21.6706 17.7525V14.2525C21.6706 13.2865 22.4536 12.5025 23.4206 12.5025H28.9166ZM28.9166 1.4975C29.8826 1.4975 30.6666 2.2815 30.6666 3.2475V8.7505C30.6668 8.98039 30.6216 9.20807 30.5337 9.4205C30.4458 9.63294 30.3169 9.82597 30.1544 9.98858C29.9919 10.1512 29.7989 10.2802 29.5866 10.3682C29.3742 10.4562 29.1465 10.5015 28.9166 10.5015H12.4166C11.9525 10.5015 11.5074 10.3171 11.1792 9.98893C10.851 9.66075 10.6666 9.21563 10.6666 8.7515V3.2475C10.6666 2.80831 10.8318 2.38518 11.1293 2.06211C11.4268 1.73903 11.8349 1.53964 12.2726 1.5035L12.4166 1.4975H28.9166Z" stroke="#8A8A8A"/>
<path d="M1.84257 34.5025V27.5025H3.06257V34.5025H1.84257ZM8.58918 31.3425V34.5025H7.36918V31.6625C7.36918 31.4658 7.32085 31.2875 7.22418 31.1275C7.12751 30.9642 6.99751 30.8358 6.83418 30.7425C6.67418 30.6458 6.49585 30.5975 6.29918 30.5975C6.10251 30.5975 5.92251 30.6458 5.75918 30.7425C5.59918 30.8358 5.47085 30.9642 5.37418 31.1275C5.28085 31.2875 5.23418 31.4658 5.23418 31.6625V34.5025H4.01418L4.00918 29.5025H5.22918L5.23418 29.9475C5.40418 29.7675 5.60751 29.6258 5.84418 29.5225C6.08085 29.4158 6.33585 29.3625 6.60918 29.3625C6.97251 29.3625 7.30418 29.4525 7.60418 29.6325C7.90418 29.8092 8.14251 30.0475 8.31918 30.3475C8.49918 30.6442 8.58918 30.9758 8.58918 31.3425ZM10.5924 28.4525V29.5025H11.9574V30.7225H10.5924V34.5025H9.37235V30.7225H8.82735V29.5025H9.37235V28.4525C9.37235 28.1658 9.44235 27.9042 9.58235 27.6675C9.72569 27.4275 9.91735 27.2375 10.1574 27.0975C10.3974 26.9542 10.6624 26.8825 10.9524 26.8825C11.1624 26.8825 11.3707 26.9258 11.5774 27.0125C11.784 27.0992 11.9674 27.2325 12.1274 27.4125L11.2474 28.2725C11.2174 28.2158 11.174 28.1742 11.1174 28.1475C11.064 28.1175 11.009 28.1025 10.9524 28.1025C10.8557 28.1025 10.7707 28.1375 10.6974 28.2075C10.6274 28.2742 10.5924 28.3558 10.5924 28.4525ZM14.4752 34.6325C14.0152 34.6325 13.5952 34.5142 13.2152 34.2775C12.8385 34.0408 12.5369 33.7242 12.3102 33.3275C12.0869 32.9275 11.9752 32.4858 11.9752 32.0025C11.9752 31.6358 12.0402 31.2942 12.1702 30.9775C12.3002 30.6575 12.4785 30.3775 12.7052 30.1375C12.9352 29.8942 13.2019 29.7042 13.5052 29.5675C13.8085 29.4308 14.1319 29.3625 14.4752 29.3625C14.9352 29.3625 15.3535 29.4808 15.7302 29.7175C16.1102 29.9542 16.4119 30.2725 16.6352 30.6725C16.8619 31.0725 16.9752 31.5158 16.9752 32.0025C16.9752 32.3658 16.9102 32.7058 16.7802 33.0225C16.6502 33.3392 16.4702 33.6192 16.2402 33.8625C16.0135 34.1025 15.7485 34.2908 15.4452 34.4275C15.1452 34.5642 14.8219 34.6325 14.4752 34.6325ZM14.4752 33.4125C14.7185 33.4125 14.9369 33.3475 15.1302 33.2175C15.3235 33.0875 15.4752 32.9158 15.5852 32.7025C15.6985 32.4892 15.7552 32.2558 15.7552 32.0025C15.7552 31.7425 15.6969 31.5058 15.5802 31.2925C15.4669 31.0758 15.3119 30.9042 15.1152 30.7775C14.9219 30.6475 14.7085 30.5825 14.4752 30.5825C14.2352 30.5825 14.0185 30.6475 13.8252 30.7775C13.6319 30.9075 13.4785 31.0808 13.3652 31.2975C13.2519 31.5142 13.1952 31.7492 13.1952 32.0025C13.1952 32.2658 13.2535 32.5042 13.3702 32.7175C13.4869 32.9308 13.6419 33.1008 13.8352 33.2275C14.0319 33.3508 14.2452 33.4125 14.4752 33.4125ZM19.4573 34.5025V27.5025H21.9573C22.3373 27.5025 22.6806 27.5975 22.9873 27.7875C23.2973 27.9775 23.5423 28.2325 23.7223 28.5525C23.9023 28.8725 23.9923 29.2242 23.9923 29.6075C23.9923 30.0008 23.8989 30.3575 23.7123 30.6775C23.5289 30.9942 23.2823 31.2475 22.9723 31.4375C22.6623 31.6242 22.3239 31.7175 21.9573 31.7175H20.6773V34.5025H19.4573ZM20.6773 30.4975H21.8273C22.0006 30.4975 22.1589 30.4542 22.3023 30.3675C22.4456 30.2808 22.5589 30.1642 22.6423 30.0175C22.7289 29.8708 22.7723 29.7075 22.7723 29.5275C22.7723 29.3442 22.7289 29.1792 22.6423 29.0325C22.5589 28.8858 22.4456 28.7692 22.3023 28.6825C22.1589 28.5958 22.0006 28.5525 21.8273 28.5525H20.6773V30.4975ZM27.9267 29.5025H29.1467V34.5025H27.9267L27.8717 33.8825C27.735 34.1058 27.5533 34.2875 27.3267 34.4275C27.1033 34.5642 26.8383 34.6325 26.5317 34.6325C26.1617 34.6325 25.815 34.5625 25.4917 34.4225C25.1683 34.2825 24.8833 34.0892 24.6367 33.8425C24.3933 33.5958 24.2017 33.3108 24.0617 32.9875C23.925 32.6642 23.8567 32.3175 23.8567 31.9475C23.8567 31.5908 23.9217 31.2558 24.0517 30.9425C24.185 30.6292 24.37 30.3542 24.6067 30.1175C24.8433 29.8808 25.1167 29.6958 25.4267 29.5625C25.7367 29.4292 26.07 29.3625 26.4267 29.3625C26.7567 29.3625 27.0517 29.4358 27.3117 29.5825C27.575 29.7292 27.7983 29.9158 27.9817 30.1425L27.9267 29.5025ZM26.5017 33.4575C26.7617 33.4575 26.9917 33.3925 27.1917 33.2625C27.3917 33.1325 27.5483 32.9575 27.6617 32.7375C27.775 32.5142 27.8317 32.2692 27.8317 32.0025C27.8317 31.7325 27.775 31.4875 27.6617 31.2675C27.5483 31.0442 27.39 30.8675 27.1867 30.7375C26.9867 30.6075 26.7583 30.5425 26.5017 30.5425C26.245 30.5425 26.01 30.6092 25.7967 30.7425C25.5867 30.8725 25.4183 31.0475 25.2917 31.2675C25.1683 31.4875 25.1067 31.7325 25.1067 32.0025C25.1067 32.2725 25.17 32.5175 25.2967 32.7375C25.4233 32.9575 25.5917 33.1325 25.8017 33.2625C26.015 33.3925 26.2483 33.4575 26.5017 33.4575ZM33.3474 29.5025H34.5674V34.5975C34.5674 34.9575 34.494 35.2842 34.3474 35.5775C34.2007 35.8742 34.0007 36.1275 33.7474 36.3375C33.494 36.5508 33.204 36.7142 32.8774 36.8275C32.5507 36.9442 32.2074 37.0025 31.8474 37.0025C31.4974 37.0025 31.1607 36.9308 30.8374 36.7875C30.514 36.6442 30.2274 36.4475 29.9774 36.1975C29.7307 35.9508 29.5424 35.6692 29.4124 35.3525L30.5274 34.8475C30.594 35.0308 30.694 35.1908 30.8274 35.3275C30.964 35.4675 31.1207 35.5758 31.2974 35.6525C31.474 35.7325 31.6574 35.7725 31.8474 35.7725C32.0407 35.7725 32.2257 35.7458 32.4024 35.6925C32.5824 35.6392 32.744 35.5608 32.8874 35.4575C33.0307 35.3575 33.1424 35.2342 33.2224 35.0875C33.3057 34.9442 33.3474 34.7808 33.3474 34.5975V33.8925C33.1907 34.1125 32.994 34.2908 32.7574 34.4275C32.5207 34.5642 32.2474 34.6325 31.9374 34.6325C31.5774 34.6325 31.2407 34.5642 30.9274 34.4275C30.614 34.2908 30.3374 34.1025 30.0974 33.8625C29.8607 33.6192 29.674 33.3392 29.5374 33.0225C29.404 32.7058 29.3374 32.3658 29.3374 32.0025C29.3374 31.6392 29.404 31.2992 29.5374 30.9825C29.674 30.6658 29.8607 30.3875 30.0974 30.1475C30.3374 29.9042 30.614 29.7142 30.9274 29.5775C31.2407 29.4408 31.5774 29.3725 31.9374 29.3725C32.2474 29.3725 32.5207 29.4408 32.7574 29.5775C32.994 29.7108 33.1907 29.8875 33.3474 30.1075V29.5025ZM31.9524 33.4575C32.209 33.4575 32.4357 33.3925 32.6324 33.2625C32.8324 33.1292 32.989 32.9525 33.1024 32.7325C33.2157 32.5092 33.2724 32.2658 33.2724 32.0025C33.2724 31.7358 33.214 31.4925 33.0974 31.2725C32.984 31.0525 32.8274 30.8758 32.6274 30.7425C32.4307 30.6092 32.2057 30.5425 31.9524 30.5425C31.7024 30.5425 31.474 30.6092 31.2674 30.7425C31.0607 30.8725 30.8957 31.0475 30.7724 31.2675C30.649 31.4875 30.5874 31.7325 30.5874 32.0025C30.5874 32.2725 30.649 32.5175 30.7724 32.7375C30.8957 32.9575 31.0607 33.1325 31.2674 33.2625C31.474 33.3925 31.7024 33.4575 31.9524 33.4575ZM37.445 34.6325C36.985 34.6325 36.565 34.5142 36.185 34.2775C35.8083 34.0408 35.5066 33.7225 35.28 33.3225C35.0566 32.9225 34.945 32.4808 34.945 31.9975C34.945 31.6342 35.01 31.2942 35.14 30.9775C35.27 30.6575 35.4483 30.3775 35.675 30.1375C35.905 29.8942 36.1716 29.7042 36.475 29.5675C36.7783 29.4308 37.1016 29.3625 37.445 29.3625C37.835 29.3625 38.1916 29.4458 38.515 29.6125C38.8416 29.7758 39.1183 30.0008 39.345 30.2875C39.5716 30.5742 39.7366 30.9008 39.84 31.2675C39.9433 31.6342 39.9666 32.0175 39.91 32.4175H36.255C36.3016 32.6042 36.3783 32.7725 36.485 32.9225C36.5916 33.0692 36.7266 33.1875 36.89 33.2775C37.0533 33.3642 37.2383 33.4092 37.445 33.4125C37.6583 33.4158 37.8516 33.3658 38.025 33.2625C38.2016 33.1558 38.3483 33.0125 38.465 32.8325L39.71 33.1225C39.5066 33.5658 39.2033 33.9292 38.8 34.2125C38.3966 34.4925 37.945 34.6325 37.445 34.6325ZM36.215 31.5025H38.675C38.6383 31.3025 38.56 31.1225 38.44 30.9625C38.3233 30.7992 38.1783 30.6692 38.005 30.5725C37.8316 30.4758 37.645 30.4275 37.445 30.4275C37.245 30.4275 37.06 30.4758 36.89 30.5725C36.72 30.6658 36.575 30.7942 36.455 30.9575C36.3383 31.1175 36.2583 31.2992 36.215 31.5025Z" fill="#8A8A8A"/>
</svg>
