<svg width="43" height="47" viewBox="0 0 43 47" fill="none" xmlns="http://www.w3.org/2000/svg">
<path d="M23.75 12.4999H25.4375V15.7899L28.1825 17.4349L27.3387 18.9516L23.75 16.8049V12.4999ZM12.5 0.833252H28.25C28.8467 0.833252 29.419 1.07908 29.841 1.51667C30.2629 1.95425 30.5 2.54775 30.5 3.16659V10.2833C31.895 11.7533 32.75 13.7716 32.75 15.9999C32.75 18.1659 31.9203 20.2431 30.4435 21.7746C28.9666 23.3062 26.9636 24.1666 24.875 24.1666C22.7262 24.1666 20.78 23.2799 19.3625 21.8333H12.5C11.9033 21.8333 11.331 21.5874 10.909 21.1498C10.4871 20.7122 10.25 20.1188 10.25 19.4999V3.16659C10.25 2.54775 10.4871 1.95425 10.909 1.51667C11.331 1.07908 11.9033 0.833252 12.5 0.833252ZM12.5 15.9999V19.4999H17.7537C17.27 18.4383 17 17.2483 17 15.9999H12.5ZM12.5 7.83325H19.25V4.33325H12.5V7.83325ZM28.25 7.83325V4.33325H21.5V7.83325H28.25ZM12.5 13.6666H17.3262C17.7087 12.3249 18.4175 11.1233 19.3625 10.1666H12.5V13.6666ZM24.875 10.3416C23.4279 10.3416 22.0401 10.9377 21.0168 11.9989C19.9936 13.06 19.4187 14.4992 19.4187 15.9999C19.4187 19.1266 21.86 21.6583 24.875 21.6583C25.5915 21.6583 26.301 21.5119 26.963 21.2275C27.625 20.9432 28.2265 20.5264 28.7332 20.001C29.2398 19.4755 29.6417 18.8518 29.9159 18.1653C30.1901 17.4788 30.3312 16.743 30.3312 15.9999C30.3312 12.8733 27.89 10.3416 24.875 10.3416Z" fill="#8354FF"/>
<path d="M6.06325 32.1666V33.3866H3.92325V39.1666H2.70325V33.3866H0.56325V32.1666H6.06325ZM6.21463 34.1666H7.43463V39.1666H6.21463V34.1666ZM6.83463 33.5216C6.65463 33.5216 6.50296 33.4633 6.37963 33.3466C6.25629 33.2266 6.19462 33.0766 6.19462 32.8966C6.19462 32.7199 6.25629 32.5716 6.37963 32.4516C6.50296 32.3316 6.65296 32.2716 6.82963 32.2716C7.00629 32.2716 7.15463 32.3316 7.27463 32.4516C7.39796 32.5716 7.45963 32.7199 7.45963 32.8966C7.45963 33.0766 7.39963 33.2266 7.27962 33.3466C7.15963 33.4633 7.01129 33.5216 6.83463 33.5216ZM8.18944 39.1666V34.1666H9.40944V34.6116C9.57944 34.4316 9.78277 34.2899 10.0194 34.1866C10.2561 34.0799 10.5111 34.0266 10.7844 34.0266C11.1311 34.0266 11.4494 34.1083 11.7394 34.2716C12.0328 34.4349 12.2661 34.6533 12.4394 34.9266C12.6161 34.6533 12.8494 34.4349 13.1394 34.2716C13.4294 34.1083 13.7478 34.0266 14.0944 34.0266C14.4611 34.0266 14.7928 34.1166 15.0894 34.2966C15.3894 34.4733 15.6278 34.7116 15.8044 35.0116C15.9844 35.3083 16.0744 35.6399 16.0744 36.0066V39.1666H14.8544V36.3316C14.8544 36.1383 14.8061 35.9616 14.7094 35.8016C14.6161 35.6383 14.4894 35.5083 14.3294 35.4116C14.1728 35.3116 13.9961 35.2616 13.7994 35.2616C13.6028 35.2616 13.4244 35.3099 13.2644 35.4066C13.1078 35.4999 12.9811 35.6266 12.8844 35.7866C12.7878 35.9466 12.7394 36.1283 12.7394 36.3316V39.1666H11.5194V36.3316C11.5194 36.1283 11.4728 35.9466 11.3794 35.7866C11.2861 35.6266 11.1594 35.4999 10.9994 35.4066C10.8394 35.3099 10.6611 35.2616 10.4644 35.2616C10.2711 35.2616 10.0944 35.3116 9.93444 35.4116C9.77444 35.5083 9.6461 35.6383 9.54944 35.8016C9.4561 35.9616 9.40944 36.1383 9.40944 36.3316V39.1666H8.18944ZM18.7705 39.2966C18.3105 39.2966 17.8905 39.1783 17.5105 38.9416C17.1338 38.7049 16.8322 38.3866 16.6055 37.9866C16.3822 37.5866 16.2705 37.1449 16.2705 36.6616C16.2705 36.2983 16.3355 35.9583 16.4655 35.6416C16.5955 35.3216 16.7738 35.0416 17.0005 34.8016C17.2305 34.5583 17.4972 34.3683 17.8005 34.2316C18.1038 34.0949 18.4272 34.0266 18.7705 34.0266C19.1605 34.0266 19.5172 34.1099 19.8405 34.2766C20.1672 34.4399 20.4438 34.6649 20.6705 34.9516C20.8972 35.2383 21.0622 35.5649 21.1655 35.9316C21.2688 36.2983 21.2922 36.6816 21.2355 37.0816H17.5805C17.6272 37.2683 17.7038 37.4366 17.8105 37.5866C17.9172 37.7333 18.0522 37.8516 18.2155 37.9416C18.3788 38.0283 18.5638 38.0733 18.7705 38.0766C18.9838 38.0799 19.1772 38.0299 19.3505 37.9266C19.5272 37.8199 19.6738 37.6766 19.7905 37.4966L21.0355 37.7866C20.8322 38.2299 20.5288 38.5933 20.1255 38.8766C19.7222 39.1566 19.2705 39.2966 18.7705 39.2966ZM17.5405 36.1666H20.0005C19.9638 35.9666 19.8855 35.7866 19.7655 35.6266C19.6488 35.4633 19.5038 35.3333 19.3305 35.2366C19.1572 35.1399 18.9705 35.0916 18.7705 35.0916C18.5705 35.0916 18.3855 35.1399 18.2155 35.2366C18.0455 35.3299 17.9005 35.4583 17.7805 35.6216C17.6638 35.7816 17.5838 35.9633 17.5405 36.1666ZM24.321 35.3866H23.351V39.1666H22.131V35.3866H21.391V34.1666H22.131V32.5966H23.351V34.1666H24.321V35.3866ZM28.4698 34.1666H29.6898V39.1666H28.4698L28.4148 38.5466C28.2781 38.7699 28.0965 38.9516 27.8698 39.0916C27.6465 39.2283 27.3815 39.2966 27.0748 39.2966C26.7048 39.2966 26.3581 39.2266 26.0348 39.0866C25.7115 38.9466 25.4265 38.7533 25.1798 38.5066C24.9365 38.2599 24.7448 37.9749 24.6048 37.6516C24.4681 37.3283 24.3998 36.9816 24.3998 36.6116C24.3998 36.2549 24.4648 35.9199 24.5948 35.6066C24.7281 35.2933 24.9131 35.0183 25.1498 34.7816C25.3865 34.5449 25.6598 34.3599 25.9698 34.2266C26.2798 34.0933 26.6131 34.0266 26.9698 34.0266C27.2998 34.0266 27.5948 34.0999 27.8548 34.2466C28.1181 34.3933 28.3415 34.5799 28.5248 34.8066L28.4698 34.1666ZM27.0448 38.1216C27.3048 38.1216 27.5348 38.0566 27.7348 37.9266C27.9348 37.7966 28.0915 37.6216 28.2048 37.4016C28.3181 37.1783 28.3748 36.9333 28.3748 36.6666C28.3748 36.3966 28.3181 36.1516 28.2048 35.9316C28.0915 35.7083 27.9331 35.5316 27.7298 35.4016C27.5298 35.2716 27.3015 35.2066 27.0448 35.2066C26.7881 35.2066 26.5531 35.2733 26.3398 35.4066C26.1298 35.5366 25.9615 35.7116 25.8348 35.9316C25.7115 36.1516 25.6498 36.3966 25.6498 36.6666C25.6498 36.9366 25.7131 37.1816 25.8398 37.4016C25.9665 37.6216 26.1348 37.7966 26.3448 37.9266C26.5581 38.0566 26.7915 38.1216 27.0448 38.1216ZM32.9674 34.0266C33.4541 34.0266 33.8974 34.1449 34.2974 34.3816C34.6974 34.6183 35.0158 34.9366 35.2524 35.3366C35.4891 35.7333 35.6074 36.1733 35.6074 36.6566C35.6074 37.0199 35.5391 37.3616 35.4024 37.6816C35.2658 38.0016 35.0758 38.2833 34.8324 38.5266C34.5924 38.7666 34.3124 38.9549 33.9924 39.0916C33.6758 39.2283 33.3341 39.2966 32.9674 39.2966C32.6541 39.2966 32.3758 39.2266 32.1324 39.0866C31.8924 38.9433 31.6908 38.7583 31.5274 38.5316V39.1666H30.3074V31.6666H31.5274V34.7916C31.6908 34.5649 31.8924 34.3816 32.1324 34.2416C32.3758 34.0983 32.6541 34.0266 32.9674 34.0266ZM32.9524 38.1166C33.2124 38.1166 33.4474 38.0516 33.6574 37.9216C33.8708 37.7883 34.0408 37.6116 34.1674 37.3916C34.2941 37.1716 34.3574 36.9266 34.3574 36.6566C34.3574 36.3899 34.2941 36.1466 34.1674 35.9266C34.0408 35.7033 33.8708 35.5266 33.6574 35.3966C33.4441 35.2666 33.2091 35.2016 32.9524 35.2016C32.6991 35.2016 32.4724 35.2683 32.2724 35.4016C32.0724 35.5316 31.9158 35.7083 31.8024 35.9316C31.6891 36.1516 31.6324 36.3933 31.6324 36.6566C31.6324 36.9266 31.6891 37.1733 31.8024 37.3966C31.9158 37.6166 32.0724 37.7916 32.2724 37.9216C32.4724 38.0516 32.6991 38.1166 32.9524 38.1166ZM35.9053 39.1666V31.6666H37.1253V39.1666H35.9053ZM40.041 39.2966C39.581 39.2966 39.161 39.1783 38.781 38.9416C38.4044 38.7049 38.1027 38.3866 37.876 37.9866C37.6527 37.5866 37.541 37.1449 37.541 36.6616C37.541 36.2983 37.606 35.9583 37.736 35.6416C37.866 35.3216 38.0444 35.0416 38.271 34.8016C38.501 34.5583 38.7677 34.3683 39.071 34.2316C39.3744 34.0949 39.6977 34.0266 40.041 34.0266C40.431 34.0266 40.7877 34.1099 41.111 34.2766C41.4377 34.4399 41.7144 34.6649 41.941 34.9516C42.1677 35.2383 42.3327 35.5649 42.436 35.9316C42.5394 36.2983 42.5627 36.6816 42.506 37.0816H38.851C38.8977 37.2683 38.9744 37.4366 39.081 37.5866C39.1877 37.7333 39.3227 37.8516 39.486 37.9416C39.6494 38.0283 39.8344 38.0733 40.041 38.0766C40.2544 38.0799 40.4477 38.0299 40.621 37.9266C40.7977 37.8199 40.9444 37.6766 41.061 37.4966L42.306 37.7866C42.1027 38.2299 41.7994 38.5933 41.396 38.8766C40.9927 39.1566 40.541 39.2966 40.041 39.2966ZM38.811 36.1666H41.271C41.2344 35.9666 41.156 35.7866 41.036 35.6266C40.9194 35.4633 40.7744 35.3333 40.601 35.2366C40.4277 35.1399 40.241 35.0916 40.041 35.0916C39.841 35.0916 39.656 35.1399 39.486 35.2366C39.316 35.3299 39.171 35.4583 39.051 35.6216C38.9344 35.7816 38.8544 35.9633 38.811 36.1666Z" fill="#8354FF"/>
</svg>
