<svg width="50" height="50" viewBox="0 0 50 50" fill="none" xmlns="http://www.w3.org/2000/svg">
<path d="M32.418 9.918L32.4242 9.91176L32.4303 9.90531C32.6805 9.63675 32.8167 9.28155 32.8102 8.91454C32.8038 8.54753 32.6551 8.19736 32.3955 7.9378C32.136 7.67824 31.7858 7.52956 31.4188 7.52309C31.0518 7.51661 30.6966 7.65284 30.428 7.90308L30.4216 7.9091L30.4153 7.91534L28.9722 9.35845L28.7569 9.14313C28.6285 9.00725 28.4745 8.8981 28.3037 8.822C28.1299 8.74457 27.9423 8.70293 27.7521 8.69958C27.5619 8.69622 27.373 8.73121 27.1966 8.80246C27.0202 8.87371 26.8599 8.97977 26.7254 9.11429C26.5909 9.24881 26.4848 9.40905 26.4136 9.58545C26.3423 9.76185 26.3073 9.9508 26.3107 10.141C26.314 10.3312 26.3557 10.5188 26.4331 10.6926C26.5092 10.8634 26.6184 11.0174 26.7542 11.1458L27.9709 12.3624L27.9711 12.3627C28.2367 12.628 28.5968 12.777 28.9722 12.777C29.3476 12.777 29.7077 12.628 29.9733 12.3627L29.9736 12.3624L32.418 9.918ZM30.4156 14.6373L30.4153 14.6376L28.9722 16.0807L28.7569 15.8653C28.6285 15.7295 28.4745 15.6203 28.3037 15.5442C28.1299 15.4668 27.9423 15.4252 27.7521 15.4218C27.5619 15.4184 27.373 15.4534 27.1966 15.5247C27.0202 15.5959 26.8599 15.702 26.7254 15.8365C26.5909 15.971 26.4848 16.1313 26.4136 16.3077C26.3423 16.4841 26.3073 16.673 26.3107 16.8632C26.314 17.0535 26.3557 17.241 26.4331 17.4148C26.5092 17.5856 26.6184 17.7396 26.7542 17.868L27.9709 19.0847L27.9711 19.0849C28.2367 19.3502 28.5968 19.4992 28.9722 19.4992C29.3476 19.4992 29.7077 19.3502 29.9733 19.0849L29.9736 19.0847L32.418 16.6402L32.4182 16.64C32.6835 16.3744 32.8325 16.0143 32.8325 15.6389C32.8325 15.2635 32.6835 14.9034 32.4182 14.6378L32.4178 14.6373C32.1522 14.372 31.7921 14.223 31.4167 14.223C31.0413 14.223 30.6812 14.372 30.4156 14.6373ZM14.5 6.47222C14.5 5.55133 14.8658 4.66816 15.517 4.01699C16.1682 3.36582 17.0513 3 17.9722 3H32.0278C32.9487 3 33.8318 3.36582 34.483 4.01699C35.1342 4.66816 35.5 5.55133 35.5 6.47222V20.5278C35.5 21.4487 35.1342 22.3318 34.483 22.983C33.8318 23.6342 32.9487 24 32.0278 24H17.9722C17.0513 24 16.1682 23.6342 15.517 22.983C14.8658 22.3318 14.5 21.4487 14.5 20.5278V6.47222ZM19.1944 15.4444C18.8187 15.4444 18.4584 15.5937 18.1927 15.8594C17.927 16.1251 17.7778 16.4854 17.7778 16.8611C17.7778 17.2368 17.927 17.5972 18.1927 17.8628C18.4584 18.1285 18.8187 18.2778 19.1944 18.2778H23.4722C23.8479 18.2778 24.2083 18.1285 24.474 17.8628C24.7396 17.5972 24.8889 17.2368 24.8889 16.8611C24.8889 16.4854 24.7396 16.1251 24.474 15.8594C24.2083 15.5937 23.8479 15.4444 23.4722 15.4444H19.1944ZM17.7778 10.1389C17.7778 10.921 18.4123 11.5556 19.1944 11.5556H23.4722C23.8479 11.5556 24.2083 11.4063 24.474 11.1406C24.7396 10.8749 24.8889 10.5146 24.8889 10.1389C24.8889 9.76317 24.7396 9.40283 24.474 9.13715C24.2083 8.87148 23.8479 8.72222 23.4722 8.72222H19.1944C18.8187 8.72222 18.4584 8.87148 18.1927 9.13715C17.927 9.40283 17.7778 9.76317 17.7778 10.1389Z" fill="white" stroke="#8A8A8A"/>
<path d="M5.90007 42.5L7.26007 35.5H8.27007L9.97507 39.985L11.6801 35.5H12.6901L14.0501 42.5H12.8051L11.9651 38.17L10.3901 42.34H9.55507L7.98007 38.17L7.14507 42.5H5.90007ZM17.7014 37.5H18.9964L16.2614 45H14.9664L15.8714 42.5L14.0714 37.5H15.4064L16.4814 40.83L17.7014 37.5ZM26.8804 35.5V36.72H24.7404V42.5H23.5204V36.72H21.3804V35.5H26.8804ZM30.4795 37.5H31.6995V42.5H30.4795L30.4245 41.88C30.2878 42.1033 30.1061 42.285 29.8795 42.425C29.6561 42.5617 29.3911 42.63 29.0845 42.63C28.7145 42.63 28.3678 42.56 28.0445 42.42C27.7211 42.28 27.4361 42.0867 27.1895 41.84C26.9461 41.5933 26.7545 41.3083 26.6145 40.985C26.4778 40.6617 26.4095 40.315 26.4095 39.945C26.4095 39.5883 26.4745 39.2533 26.6045 38.94C26.7378 38.6267 26.9228 38.3517 27.1595 38.115C27.3961 37.8783 27.6695 37.6933 27.9795 37.56C28.2895 37.4267 28.6228 37.36 28.9795 37.36C29.3095 37.36 29.6045 37.4333 29.8645 37.58C30.1278 37.7267 30.3511 37.9133 30.5345 38.14L30.4795 37.5ZM29.0545 41.455C29.3145 41.455 29.5445 41.39 29.7445 41.26C29.9445 41.13 30.1011 40.955 30.2145 40.735C30.3278 40.5117 30.3845 40.2667 30.3845 40C30.3845 39.73 30.3278 39.485 30.2145 39.265C30.1011 39.0417 29.9428 38.865 29.7395 38.735C29.5395 38.605 29.3111 38.54 29.0545 38.54C28.7978 38.54 28.5628 38.6067 28.3495 38.74C28.1395 38.87 27.9711 39.045 27.8445 39.265C27.7211 39.485 27.6595 39.73 27.6595 40C27.6595 40.27 27.7228 40.515 27.8495 40.735C27.9761 40.955 28.1445 41.13 28.3545 41.26C28.5678 41.39 28.8011 41.455 29.0545 41.455ZM33.7628 42.59C33.5028 42.5733 33.2511 42.5217 33.0078 42.435C32.7678 42.345 32.5545 42.2233 32.3678 42.07C32.1811 41.9167 32.0378 41.7333 31.9378 41.52L32.9678 41.08C33.0078 41.1467 33.0728 41.2183 33.1628 41.295C33.2528 41.3683 33.3595 41.43 33.4828 41.48C33.6095 41.53 33.7478 41.555 33.8978 41.555C34.0245 41.555 34.1445 41.5383 34.2578 41.505C34.3745 41.4683 34.4678 41.4133 34.5378 41.34C34.6111 41.2667 34.6478 41.1717 34.6478 41.055C34.6478 40.9317 34.6045 40.8367 34.5178 40.77C34.4345 40.7 34.3278 40.6483 34.1978 40.615C34.0711 40.5783 33.9478 40.545 33.8278 40.515C33.5111 40.4517 33.2161 40.3533 32.9428 40.22C32.6728 40.0867 32.4545 39.915 32.2878 39.705C32.1245 39.4917 32.0428 39.235 32.0428 38.935C32.0428 38.605 32.1295 38.32 32.3028 38.08C32.4795 37.84 32.7078 37.655 32.9878 37.525C33.2711 37.395 33.5761 37.33 33.9028 37.33C34.2995 37.33 34.6628 37.4133 34.9928 37.58C35.3261 37.7433 35.5895 37.975 35.7828 38.275L34.8178 38.845C34.7711 38.765 34.7061 38.6917 34.6228 38.625C34.5395 38.555 34.4445 38.4983 34.3378 38.455C34.2311 38.4083 34.1195 38.3817 34.0028 38.375C33.8528 38.3683 33.7161 38.3817 33.5928 38.415C33.4695 38.4483 33.3695 38.505 33.2928 38.585C33.2195 38.665 33.1828 38.7717 33.1828 38.905C33.1828 39.0317 33.2328 39.1267 33.3328 39.19C33.4328 39.25 33.5528 39.2967 33.6928 39.33C33.8361 39.3633 33.9728 39.4 34.1028 39.44C34.3961 39.5367 34.6711 39.655 34.9278 39.795C35.1878 39.935 35.3961 40.1067 35.5528 40.31C35.7095 40.5133 35.7845 40.7567 35.7778 41.04C35.7778 41.3633 35.6811 41.6467 35.4878 41.89C35.2945 42.13 35.0445 42.3133 34.7378 42.44C34.4345 42.5667 34.1095 42.6167 33.7628 42.59ZM40.6905 42.5H39.2855L38.1455 40.535L37.4455 41.37V42.5H36.2255V35H37.4455V39.475L39.1005 37.5H40.6955L38.9805 39.545L40.6905 42.5ZM42.4292 42.59C42.1692 42.5733 41.9176 42.5217 41.6742 42.435C41.4342 42.345 41.2209 42.2233 41.0342 42.07C40.8476 41.9167 40.7042 41.7333 40.6042 41.52L41.6342 41.08C41.6742 41.1467 41.7392 41.2183 41.8292 41.295C41.9192 41.3683 42.0259 41.43 42.1492 41.48C42.2759 41.53 42.4142 41.555 42.5642 41.555C42.6909 41.555 42.8109 41.5383 42.9242 41.505C43.0409 41.4683 43.1342 41.4133 43.2042 41.34C43.2776 41.2667 43.3142 41.1717 43.3142 41.055C43.3142 40.9317 43.2709 40.8367 43.1842 40.77C43.1009 40.7 42.9942 40.6483 42.8642 40.615C42.7376 40.5783 42.6142 40.545 42.4942 40.515C42.1776 40.4517 41.8826 40.3533 41.6092 40.22C41.3392 40.0867 41.1209 39.915 40.9542 39.705C40.7909 39.4917 40.7092 39.235 40.7092 38.935C40.7092 38.605 40.7959 38.32 40.9692 38.08C41.1459 37.84 41.3742 37.655 41.6542 37.525C41.9376 37.395 42.2426 37.33 42.5692 37.33C42.9659 37.33 43.3292 37.4133 43.6592 37.58C43.9926 37.7433 44.2559 37.975 44.4492 38.275L43.4842 38.845C43.4376 38.765 43.3726 38.6917 43.2892 38.625C43.2059 38.555 43.1109 38.4983 43.0042 38.455C42.8976 38.4083 42.7859 38.3817 42.6692 38.375C42.5192 38.3683 42.3826 38.3817 42.2592 38.415C42.1359 38.4483 42.0359 38.505 41.9592 38.585C41.8859 38.665 41.8492 38.7717 41.8492 38.905C41.8492 39.0317 41.8992 39.1267 41.9992 39.19C42.0992 39.25 42.2192 39.2967 42.3592 39.33C42.5026 39.3633 42.6392 39.4 42.7692 39.44C43.0626 39.5367 43.3376 39.655 43.5942 39.795C43.8542 39.935 44.0626 40.1067 44.2192 40.31C44.3759 40.5133 44.4509 40.7567 44.4442 41.04C44.4442 41.3633 44.3476 41.6467 44.1542 41.89C43.9609 42.13 43.7109 42.3133 43.4042 42.44C43.1009 42.5667 42.7759 42.6167 42.4292 42.59Z" fill="#8A8A8A"/>
</svg>
