<svg width="27" height="46" viewBox="0 0 27 46" fill="none" xmlns="http://www.w3.org/2000/svg">
<path d="M3.33333 23.5V8.83333L13.3333 1.5L23.3333 8.83333V23.5H15.8333V14.9444H10.8333V23.5H3.33333Z" fill="white" stroke="#8A8A8A"/>
<path d="M5.50127 31.5H6.72127V38.5H5.50127V35.36H2.60127V38.5H1.38127V31.5H2.60127V34.14H5.50127V31.5ZM9.63811 38.63C9.17811 38.63 8.75811 38.5117 8.37811 38.275C8.00144 38.0383 7.69978 37.7217 7.47311 37.325C7.24978 36.925 7.13811 36.4833 7.13811 36C7.13811 35.6333 7.20311 35.2917 7.33311 34.975C7.46311 34.655 7.64144 34.375 7.86811 34.135C8.09811 33.8917 8.36478 33.7017 8.66811 33.565C8.97144 33.4283 9.29478 33.36 9.63811 33.36C10.0981 33.36 10.5164 33.4783 10.8931 33.715C11.2731 33.9517 11.5748 34.27 11.7981 34.67C12.0248 35.07 12.1381 35.5133 12.1381 36C12.1381 36.3633 12.0731 36.7033 11.9431 37.02C11.8131 37.3367 11.6331 37.6167 11.4031 37.86C11.1764 38.1 10.9114 38.2883 10.6081 38.425C10.3081 38.5617 9.98478 38.63 9.63811 38.63ZM9.63811 37.41C9.88144 37.41 10.0998 37.345 10.2931 37.215C10.4864 37.085 10.6381 36.9133 10.7481 36.7C10.8614 36.4867 10.9181 36.2533 10.9181 36C10.9181 35.74 10.8598 35.5033 10.7431 35.29C10.6298 35.0733 10.4748 34.9017 10.2781 34.775C10.0848 34.645 9.87144 34.58 9.63811 34.58C9.39811 34.58 9.18144 34.645 8.98811 34.775C8.79478 34.905 8.64144 35.0783 8.52811 35.295C8.41478 35.5117 8.35811 35.7467 8.35811 36C8.35811 36.2633 8.41644 36.5017 8.53311 36.715C8.64978 36.9283 8.80478 37.0983 8.99811 37.225C9.19478 37.3483 9.40811 37.41 9.63811 37.41ZM12.5086 38.5V33.5H13.7286V33.945C13.8986 33.765 14.102 33.6233 14.3386 33.52C14.5753 33.4133 14.8303 33.36 15.1036 33.36C15.4503 33.36 15.7686 33.4417 16.0586 33.605C16.352 33.7683 16.5853 33.9867 16.7586 34.26C16.9353 33.9867 17.1686 33.7683 17.4586 33.605C17.7486 33.4417 18.067 33.36 18.4136 33.36C18.7803 33.36 19.112 33.45 19.4086 33.63C19.7086 33.8067 19.947 34.045 20.1236 34.345C20.3036 34.6417 20.3936 34.9733 20.3936 35.34V38.5H19.1736V35.665C19.1736 35.4717 19.1253 35.295 19.0286 35.135C18.9353 34.9717 18.8086 34.8417 18.6486 34.745C18.492 34.645 18.3153 34.595 18.1186 34.595C17.922 34.595 17.7436 34.6433 17.5836 34.74C17.427 34.8333 17.3003 34.96 17.2036 35.12C17.107 35.28 17.0586 35.4617 17.0586 35.665V38.5H15.8386V35.665C15.8386 35.4617 15.792 35.28 15.6986 35.12C15.6053 34.96 15.4786 34.8333 15.3186 34.74C15.1586 34.6433 14.9803 34.595 14.7836 34.595C14.5903 34.595 14.4136 34.645 14.2536 34.745C14.0936 34.8417 13.9653 34.9717 13.8686 35.135C13.7753 35.295 13.7286 35.4717 13.7286 35.665V38.5H12.5086ZM23.0897 38.63C22.6297 38.63 22.2097 38.5117 21.8297 38.275C21.453 38.0383 21.1514 37.72 20.9247 37.32C20.7014 36.92 20.5897 36.4783 20.5897 35.995C20.5897 35.6317 20.6547 35.2917 20.7847 34.975C20.9147 34.655 21.093 34.375 21.3197 34.135C21.5497 33.8917 21.8164 33.7017 22.1197 33.565C22.423 33.4283 22.7464 33.36 23.0897 33.36C23.4797 33.36 23.8364 33.4433 24.1597 33.61C24.4864 33.7733 24.763 33.9983 24.9897 34.285C25.2164 34.5717 25.3814 34.8983 25.4847 35.265C25.588 35.6317 25.6114 36.015 25.5547 36.415H21.8997C21.9464 36.6017 22.023 36.77 22.1297 36.92C22.2364 37.0667 22.3714 37.185 22.5347 37.275C22.698 37.3617 22.883 37.4067 23.0897 37.41C23.303 37.4133 23.4964 37.3633 23.6697 37.26C23.8464 37.1533 23.993 37.01 24.1097 36.83L25.3547 37.12C25.1514 37.5633 24.848 37.9267 24.4447 38.21C24.0414 38.49 23.5897 38.63 23.0897 38.63ZM21.8597 35.5H24.3197C24.283 35.3 24.2047 35.12 24.0847 34.96C23.968 34.7967 23.823 34.6667 23.6497 34.57C23.4764 34.4733 23.2897 34.425 23.0897 34.425C22.8897 34.425 22.7047 34.4733 22.5347 34.57C22.3647 34.6633 22.2197 34.7917 22.0997 34.955C21.983 35.115 21.903 35.2967 21.8597 35.5Z" fill="#8A8A8A"/>
</svg>
