<svg width="15" height="9" viewBox="0 0 15 9" fill="none" xmlns="http://www.w3.org/2000/svg">
<path d="M14.7032 1.78341L8.05409 8.77189C7.97493 8.85484 7.88918 8.91346 7.79683 8.94774C7.70449 8.98258 7.60554 9 7.5 9C7.39446 9 7.29551 8.98258 7.20317 8.94774C7.11082 8.91346 7.02507 8.85484 6.94591 8.77189L0.277045 1.78341C0.092348 1.58986 -1.79222e-07 1.34793 -1.86022e-07 1.0576C-1.92822e-07 0.767282 0.0989444 0.518435 0.296834 0.311061C0.494723 0.103688 0.725593 8.94481e-07 0.989446 8.72957e-07C1.2533 8.51432e-07 1.48417 0.103688 1.68206 0.311061L7.5 6.40783L13.3179 0.31106C13.5026 0.117512 13.7301 0.0207375 14.0003 0.0207375C14.271 0.0207374 14.5053 0.124423 14.7032 0.331796C14.9011 0.53917 15 0.781106 15 1.0576C15 1.3341 14.9011 1.57604 14.7032 1.78341Z" fill="#8354FF"/>
</svg>
