<svg width="24" height="24" viewBox="0 0 24 24" fill="none" xmlns="http://www.w3.org/2000/svg">
<path d="M15.125 21.1L6.69999 12.7C6.59999 12.6 6.52932 12.4917 6.48799 12.375C6.44599 12.2584 6.42499 12.1334 6.42499 12C6.42499 11.8667 6.44599 11.7417 6.48799 11.625C6.52932 11.5084 6.59999 11.4 6.69999 11.3L15.125 2.87502C15.3583 2.64169 15.65 2.52502 16 2.52502C16.35 2.52502 16.65 2.65002 16.9 2.90002C17.15 3.15002 17.275 3.44169 17.275 3.77502C17.275 4.10836 17.15 4.40002 16.9 4.65002L9.54999 12L16.9 19.35C17.1333 19.5834 17.25 19.8707 17.25 20.212C17.25 20.554 17.125 20.85 16.875 21.1C16.625 21.35 16.3333 21.475 16 21.475C15.6667 21.475 15.375 21.35 15.125 21.1Z" fill="black"/>
</svg>
