<svg width="14" height="14" viewBox="0 0 14 14" fill="none" xmlns="http://www.w3.org/2000/svg">
<path fill-rule="evenodd" clip-rule="evenodd" d="M6.99999 0C6.57044 0 6.22221 0.348222 6.22221 0.777777V6.22215H0.777778C0.348223 6.22215 0 6.57037 0 6.99993C0 7.42948 0.348222 7.7777 0.777777 7.7777H6.22221V13.2222C6.22221 13.6518 6.57044 14 6.99999 14C7.42955 14 7.77777 13.6518 7.77777 13.2222V7.7777H13.2222C13.6518 7.7777 14 7.42948 14 6.99993C14 6.57037 13.6518 6.22215 13.2222 6.22215H7.77777V0.777778C7.77777 0.348223 7.42955 0 6.99999 0Z" fill="#8354FF"/>
</svg>
