<svg width="12" height="12" viewBox="0 0 12 12" fill="none" xmlns="http://www.w3.org/2000/svg">
<path fill-rule="evenodd" clip-rule="evenodd" d="M0.303123 0.303444C-0.0223143 0.628881 -0.0223146 1.15652 0.303122 1.48196L4.42783 5.60666L0.30327 9.73121C-0.0221666 10.0567 -0.0221666 10.5843 0.30327 10.9097C0.628707 11.2352 1.15634 11.2352 1.48178 10.9097L5.60634 6.78517L9.73121 10.91C10.0566 11.2355 10.5843 11.2355 10.9097 10.91C11.2352 10.5846 11.2352 10.057 10.9097 9.73153L6.78485 5.60666L10.9099 1.48163C11.2353 1.1562 11.2353 0.62856 10.9099 0.303123C10.5844 -0.0223135 10.0568 -0.0223139 9.73136 0.303123L5.60634 4.42815L1.48163 0.303445C1.1562 -0.0219922 0.628559 -0.0219925 0.303123 0.303444Z" fill="#8354FF"/>
</svg>
