<svg width="43" height="47" viewBox="0 0 43 47" fill="none" xmlns="http://www.w3.org/2000/svg">
<path d="M23.75 12.5H25.4375V15.79L28.1825 17.435L27.3387 18.9517L23.75 16.805V12.5ZM12.5 0.833374H28.25C28.8467 0.833374 29.419 1.07921 29.841 1.51679C30.2629 1.95438 30.5 2.54787 30.5 3.16671V10.2834C31.895 11.7534 32.75 13.7717 32.75 16C32.75 18.166 31.9203 20.2432 30.4435 21.7747C28.9666 23.3063 26.9636 24.1667 24.875 24.1667C22.7262 24.1667 20.78 23.28 19.3625 21.8334H12.5C11.9033 21.8334 11.331 21.5875 10.909 21.15C10.4871 20.7124 10.25 20.1189 10.25 19.5V3.16671C10.25 2.54787 10.4871 1.95438 10.909 1.51679C11.331 1.07921 11.9033 0.833374 12.5 0.833374ZM12.5 16V19.5H17.7537C17.27 18.4384 17 17.2484 17 16H12.5ZM12.5 7.83337H19.25V4.33337H12.5V7.83337ZM28.25 7.83337V4.33337H21.5V7.83337H28.25ZM12.5 13.6667H17.3262C17.7087 12.325 18.4175 11.1234 19.3625 10.1667H12.5V13.6667ZM24.875 10.3417C23.4279 10.3417 22.0401 10.9379 21.0168 11.999C19.9936 13.0601 19.4187 14.4994 19.4187 16C19.4187 19.1267 21.86 21.6584 24.875 21.6584C25.5915 21.6584 26.301 21.512 26.963 21.2277C27.625 20.9433 28.2265 20.5265 28.7331 20.0011C29.2398 19.4757 29.6417 18.8519 29.9159 18.1654C30.1901 17.4789 30.3312 16.7431 30.3312 16C30.3312 12.8734 27.89 10.3417 24.875 10.3417Z" stroke="#8A8A8A"/>
<path d="M6.06325 32.1667V33.3867H3.92325V39.1667H2.70325V33.3867H0.56325V32.1667H6.06325ZM6.21463 34.1667H7.43463V39.1667H6.21463V34.1667ZM6.83463 33.5217C6.65463 33.5217 6.50296 33.4634 6.37963 33.3467C6.25629 33.2267 6.19462 33.0767 6.19462 32.8967C6.19462 32.7201 6.25629 32.5717 6.37963 32.4517C6.50296 32.3317 6.65296 32.2717 6.82963 32.2717C7.00629 32.2717 7.15463 32.3317 7.27463 32.4517C7.39796 32.5717 7.45963 32.7201 7.45963 32.8967C7.45963 33.0767 7.39963 33.2267 7.27962 33.3467C7.15963 33.4634 7.01129 33.5217 6.83463 33.5217ZM8.18944 39.1667V34.1667H9.40944V34.6117C9.57944 34.4317 9.78277 34.2901 10.0194 34.1867C10.2561 34.0801 10.5111 34.0267 10.7844 34.0267C11.1311 34.0267 11.4494 34.1084 11.7394 34.2717C12.0328 34.4351 12.2661 34.6534 12.4394 34.9267C12.6161 34.6534 12.8494 34.4351 13.1394 34.2717C13.4294 34.1084 13.7478 34.0267 14.0944 34.0267C14.4611 34.0267 14.7928 34.1167 15.0894 34.2967C15.3894 34.4734 15.6278 34.7117 15.8044 35.0117C15.9844 35.3084 16.0744 35.6401 16.0744 36.0067V39.1667H14.8544V36.3317C14.8544 36.1384 14.8061 35.9617 14.7094 35.8017C14.6161 35.6384 14.4894 35.5084 14.3294 35.4117C14.1728 35.3117 13.9961 35.2617 13.7994 35.2617C13.6028 35.2617 13.4244 35.3101 13.2644 35.4067C13.1078 35.5001 12.9811 35.6267 12.8844 35.7867C12.7878 35.9467 12.7394 36.1284 12.7394 36.3317V39.1667H11.5194V36.3317C11.5194 36.1284 11.4728 35.9467 11.3794 35.7867C11.2861 35.6267 11.1594 35.5001 10.9994 35.4067C10.8394 35.3101 10.6611 35.2617 10.4644 35.2617C10.2711 35.2617 10.0944 35.3117 9.93444 35.4117C9.77444 35.5084 9.6461 35.6384 9.54944 35.8017C9.4561 35.9617 9.40944 36.1384 9.40944 36.3317V39.1667H8.18944ZM18.7705 39.2967C18.3105 39.2967 17.8905 39.1784 17.5105 38.9417C17.1338 38.7051 16.8322 38.3867 16.6055 37.9867C16.3822 37.5867 16.2705 37.1451 16.2705 36.6617C16.2705 36.2984 16.3355 35.9584 16.4655 35.6417C16.5955 35.3217 16.7738 35.0417 17.0005 34.8017C17.2305 34.5584 17.4972 34.3684 17.8005 34.2317C18.1038 34.0951 18.4272 34.0267 18.7705 34.0267C19.1605 34.0267 19.5172 34.1101 19.8405 34.2767C20.1672 34.4401 20.4438 34.6651 20.6705 34.9517C20.8972 35.2384 21.0622 35.5651 21.1655 35.9317C21.2688 36.2984 21.2922 36.6817 21.2355 37.0817H17.5805C17.6272 37.2684 17.7038 37.4367 17.8105 37.5867C17.9172 37.7334 18.0522 37.8517 18.2155 37.9417C18.3788 38.0284 18.5638 38.0734 18.7705 38.0767C18.9838 38.0801 19.1772 38.0301 19.3505 37.9267C19.5272 37.8201 19.6738 37.6767 19.7905 37.4967L21.0355 37.7867C20.8322 38.2301 20.5288 38.5934 20.1255 38.8767C19.7222 39.1567 19.2705 39.2967 18.7705 39.2967ZM17.5405 36.1667H20.0005C19.9638 35.9667 19.8855 35.7867 19.7655 35.6267C19.6488 35.4634 19.5038 35.3334 19.3305 35.2367C19.1572 35.1401 18.9705 35.0917 18.7705 35.0917C18.5705 35.0917 18.3855 35.1401 18.2155 35.2367C18.0455 35.3301 17.9005 35.4584 17.7805 35.6217C17.6638 35.7817 17.5838 35.9634 17.5405 36.1667ZM24.321 35.3867H23.351V39.1667H22.131V35.3867H21.391V34.1667H22.131V32.5967H23.351V34.1667H24.321V35.3867ZM28.4698 34.1667H29.6898V39.1667H28.4698L28.4148 38.5467C28.2781 38.7701 28.0965 38.9517 27.8698 39.0917C27.6465 39.2284 27.3815 39.2967 27.0748 39.2967C26.7048 39.2967 26.3581 39.2267 26.0348 39.0867C25.7115 38.9467 25.4265 38.7534 25.1798 38.5067C24.9365 38.2601 24.7448 37.9751 24.6048 37.6517C24.4681 37.3284 24.3998 36.9817 24.3998 36.6117C24.3998 36.2551 24.4648 35.9201 24.5948 35.6067C24.7281 35.2934 24.9131 35.0184 25.1498 34.7817C25.3865 34.5451 25.6598 34.3601 25.9698 34.2267C26.2798 34.0934 26.6131 34.0267 26.9698 34.0267C27.2998 34.0267 27.5948 34.1001 27.8548 34.2467C28.1181 34.3934 28.3415 34.5801 28.5248 34.8067L28.4698 34.1667ZM27.0448 38.1217C27.3048 38.1217 27.5348 38.0567 27.7348 37.9267C27.9348 37.7967 28.0915 37.6217 28.2048 37.4017C28.3181 37.1784 28.3748 36.9334 28.3748 36.6667C28.3748 36.3967 28.3181 36.1517 28.2048 35.9317C28.0915 35.7084 27.9331 35.5317 27.7298 35.4017C27.5298 35.2717 27.3015 35.2067 27.0448 35.2067C26.7881 35.2067 26.5531 35.2734 26.3398 35.4067C26.1298 35.5367 25.9615 35.7117 25.8348 35.9317C25.7115 36.1517 25.6498 36.3967 25.6498 36.6667C25.6498 36.9367 25.7131 37.1817 25.8398 37.4017C25.9665 37.6217 26.1348 37.7967 26.3448 37.9267C26.5581 38.0567 26.7915 38.1217 27.0448 38.1217ZM32.9674 34.0267C33.4541 34.0267 33.8974 34.1451 34.2974 34.3817C34.6974 34.6184 35.0158 34.9367 35.2524 35.3367C35.4891 35.7334 35.6074 36.1734 35.6074 36.6567C35.6074 37.0201 35.5391 37.3617 35.4024 37.6817C35.2658 38.0017 35.0758 38.2834 34.8324 38.5267C34.5924 38.7667 34.3124 38.9551 33.9924 39.0917C33.6758 39.2284 33.3341 39.2967 32.9674 39.2967C32.6541 39.2967 32.3758 39.2267 32.1324 39.0867C31.8924 38.9434 31.6908 38.7584 31.5274 38.5317V39.1667H30.3074V31.6667H31.5274V34.7917C31.6908 34.5651 31.8924 34.3817 32.1324 34.2417C32.3758 34.0984 32.6541 34.0267 32.9674 34.0267ZM32.9524 38.1167C33.2124 38.1167 33.4474 38.0517 33.6574 37.9217C33.8708 37.7884 34.0408 37.6117 34.1674 37.3917C34.2941 37.1717 34.3574 36.9267 34.3574 36.6567C34.3574 36.3901 34.2941 36.1467 34.1674 35.9267C34.0408 35.7034 33.8708 35.5267 33.6574 35.3967C33.4441 35.2667 33.2091 35.2017 32.9524 35.2017C32.6991 35.2017 32.4724 35.2684 32.2724 35.4017C32.0724 35.5317 31.9158 35.7084 31.8024 35.9317C31.6891 36.1517 31.6324 36.3934 31.6324 36.6567C31.6324 36.9267 31.6891 37.1734 31.8024 37.3967C31.9158 37.6167 32.0724 37.7917 32.2724 37.9217C32.4724 38.0517 32.6991 38.1167 32.9524 38.1167ZM35.9053 39.1667V31.6667H37.1253V39.1667H35.9053ZM40.041 39.2967C39.581 39.2967 39.161 39.1784 38.781 38.9417C38.4044 38.7051 38.1027 38.3867 37.876 37.9867C37.6527 37.5867 37.541 37.1451 37.541 36.6617C37.541 36.2984 37.606 35.9584 37.736 35.6417C37.866 35.3217 38.0444 35.0417 38.271 34.8017C38.501 34.5584 38.7677 34.3684 39.071 34.2317C39.3744 34.0951 39.6977 34.0267 40.041 34.0267C40.431 34.0267 40.7877 34.1101 41.111 34.2767C41.4377 34.4401 41.7144 34.6651 41.941 34.9517C42.1677 35.2384 42.3327 35.5651 42.436 35.9317C42.5394 36.2984 42.5627 36.6817 42.506 37.0817H38.851C38.8977 37.2684 38.9744 37.4367 39.081 37.5867C39.1877 37.7334 39.3227 37.8517 39.486 37.9417C39.6494 38.0284 39.8344 38.0734 40.041 38.0767C40.2544 38.0801 40.4477 38.0301 40.621 37.9267C40.7977 37.8201 40.9444 37.6767 41.061 37.4967L42.306 37.7867C42.1027 38.2301 41.7994 38.5934 41.396 38.8767C40.9927 39.1567 40.541 39.2967 40.041 39.2967ZM38.811 36.1667H41.271C41.2344 35.9667 41.156 35.7867 41.036 35.6267C40.9194 35.4634 40.7744 35.3334 40.601 35.2367C40.4277 35.1401 40.241 35.0917 40.041 35.0917C39.841 35.0917 39.656 35.1401 39.486 35.2367C39.316 35.3301 39.171 35.4584 39.051 35.6217C38.9344 35.7817 38.8544 35.9634 38.811 36.1667Z" fill="#8A8A8A"/>
</svg>
