<svg width="38" height="41" viewBox="0 0 38 41" fill="none" xmlns="http://www.w3.org/2000/svg">
<path d="M19 9.49996C17.7625 9.49996 16.7031 9.04302 15.8219 8.12913C14.9406 7.21524 14.5 6.11663 14.5 4.83329C14.5 3.54996 14.9406 2.45135 15.8219 1.53746C16.7031 0.623571 17.7625 0.166626 19 0.166626C20.2375 0.166626 21.2969 0.623571 22.1781 1.53746C23.0594 2.45135 23.5 3.54996 23.5 4.83329C23.5 6.11663 23.0594 7.21524 22.1781 8.12913C21.2969 9.04302 20.2375 9.49996 19 9.49996ZM10 18.8333V15.5666C10 14.9055 10.1643 14.2977 10.4928 13.7431C10.8213 13.1886 11.257 12.7658 11.8 12.475C12.9625 11.8722 14.1437 11.4199 15.3438 11.1181C16.5438 10.8163 17.7625 10.6658 19 10.6666C20.2375 10.6666 21.4563 10.8175 22.6562 11.1193C23.8562 11.4211 25.0375 11.873 26.2 12.475C26.7437 12.7666 27.1799 13.1897 27.5084 13.7443C27.8369 14.2988 28.0007 14.9063 28 15.5666V18.8333H10Z" fill="#8354FF"/>
<path d="M1.06814 33.8333L2.42814 26.8333H3.43814L5.14314 31.3183L6.84814 26.8333H7.85814L9.21814 33.8333H7.97314L7.13314 29.5033L5.55814 33.6733H4.72314L3.14814 29.5033L2.31314 33.8333H1.06814ZM12.8694 28.8333H14.1644L11.4294 36.3333H10.1344L11.0394 33.8333L9.23944 28.8333H10.5744L11.6494 32.1633L12.8694 28.8333ZM16.7484 33.8333V26.8333H19.2484C19.6284 26.8333 19.9718 26.9283 20.2784 27.1183C20.5884 27.3083 20.8334 27.5633 21.0134 27.8833C21.1934 28.2033 21.2834 28.5549 21.2834 28.9383C21.2834 29.3316 21.1901 29.6883 21.0034 30.0083C20.8201 30.3249 20.5734 30.5783 20.2634 30.7683C19.9534 30.9549 19.6151 31.0483 19.2484 31.0483H17.9684V33.8333H16.7484ZM17.9684 29.8283H19.1184C19.2918 29.8283 19.4501 29.7849 19.5934 29.6983C19.7368 29.6116 19.8501 29.4949 19.9334 29.3483C20.0201 29.2016 20.0634 29.0383 20.0634 28.8583C20.0634 28.6749 20.0201 28.5099 19.9334 28.3633C19.8501 28.2166 19.7368 28.0999 19.5934 28.0133C19.4501 27.9266 19.2918 27.8833 19.1184 27.8833H17.9684V29.8283ZM25.2179 28.8333H26.4379V33.8333H25.2179L25.1629 33.2133C25.0262 33.4366 24.8445 33.6183 24.6179 33.7583C24.3945 33.8949 24.1295 33.9633 23.8229 33.9633C23.4529 33.9633 23.1062 33.8933 22.7829 33.7533C22.4595 33.6133 22.1745 33.4199 21.9279 33.1733C21.6845 32.9266 21.4929 32.6416 21.3529 32.3183C21.2162 31.9949 21.1479 31.6483 21.1479 31.2783C21.1479 30.9216 21.2129 30.5866 21.3429 30.2733C21.4762 29.9599 21.6612 29.6849 21.8979 29.4483C22.1345 29.2116 22.4079 29.0266 22.7179 28.8933C23.0279 28.7599 23.3612 28.6933 23.7179 28.6933C24.0479 28.6933 24.3429 28.7666 24.6029 28.9133C24.8662 29.0599 25.0895 29.2466 25.2729 29.4733L25.2179 28.8333ZM23.7929 32.7883C24.0529 32.7883 24.2829 32.7233 24.4829 32.5933C24.6829 32.4633 24.8395 32.2883 24.9529 32.0683C25.0662 31.8449 25.1229 31.5999 25.1229 31.3333C25.1229 31.0633 25.0662 30.8183 24.9529 30.5983C24.8395 30.3749 24.6812 30.1983 24.4779 30.0683C24.2779 29.9383 24.0495 29.8733 23.7929 29.8733C23.5362 29.8733 23.3012 29.9399 23.0879 30.0733C22.8779 30.2033 22.7095 30.3783 22.5829 30.5983C22.4595 30.8183 22.3979 31.0633 22.3979 31.3333C22.3979 31.6033 22.4612 31.8483 22.5879 32.0683C22.7145 32.2883 22.8829 32.4633 23.0929 32.5933C23.3062 32.7233 23.5395 32.7883 23.7929 32.7883ZM30.6385 28.8333H31.8585V33.9283C31.8585 34.2883 31.7852 34.6149 31.6385 34.9083C31.4919 35.2049 31.2919 35.4583 31.0385 35.6683C30.7852 35.8816 30.4952 36.0449 30.1685 36.1583C29.8419 36.2749 29.4985 36.3333 29.1385 36.3333C28.7885 36.3333 28.4519 36.2616 28.1285 36.1183C27.8052 35.9749 27.5185 35.7783 27.2685 35.5283C27.0219 35.2816 26.8335 34.9999 26.7035 34.6833L27.8185 34.1783C27.8852 34.3616 27.9852 34.5216 28.1185 34.6583C28.2552 34.7983 28.4119 34.9066 28.5885 34.9833C28.7652 35.0633 28.9485 35.1033 29.1385 35.1033C29.3319 35.1033 29.5169 35.0766 29.6935 35.0233C29.8735 34.9699 30.0352 34.8916 30.1785 34.7883C30.3219 34.6883 30.4335 34.5649 30.5135 34.4183C30.5969 34.2749 30.6385 34.1116 30.6385 33.9283V33.2233C30.4819 33.4433 30.2852 33.6216 30.0485 33.7583C29.8119 33.8949 29.5385 33.9633 29.2285 33.9633C28.8685 33.9633 28.5319 33.8949 28.2185 33.7583C27.9052 33.6216 27.6285 33.4333 27.3885 33.1933C27.1519 32.9499 26.9652 32.6699 26.8285 32.3533C26.6952 32.0366 26.6285 31.6966 26.6285 31.3333C26.6285 30.9699 26.6952 30.6299 26.8285 30.3133C26.9652 29.9966 27.1519 29.7183 27.3885 29.4783C27.6285 29.2349 27.9052 29.0449 28.2185 28.9083C28.5319 28.7716 28.8685 28.7033 29.2285 28.7033C29.5385 28.7033 29.8119 28.7716 30.0485 28.9083C30.2852 29.0416 30.4819 29.2183 30.6385 29.4383V28.8333ZM29.2435 32.7883C29.5002 32.7883 29.7269 32.7233 29.9235 32.5933C30.1235 32.4599 30.2802 32.2833 30.3935 32.0633C30.5069 31.8399 30.5635 31.5966 30.5635 31.3333C30.5635 31.0666 30.5052 30.8233 30.3885 30.6033C30.2752 30.3833 30.1185 30.2066 29.9185 30.0733C29.7219 29.9399 29.4969 29.8733 29.2435 29.8733C28.9935 29.8733 28.7652 29.9399 28.5585 30.0733C28.3519 30.2033 28.1869 30.3783 28.0635 30.5983C27.9402 30.8183 27.8785 31.0633 27.8785 31.3333C27.8785 31.6033 27.9402 31.8483 28.0635 32.0683C28.1869 32.2883 28.3519 32.4633 28.5585 32.5933C28.7652 32.7233 28.9935 32.7883 29.2435 32.7883ZM34.7362 33.9633C34.2762 33.9633 33.8562 33.8449 33.4762 33.6083C33.0995 33.3716 32.7978 33.0533 32.5712 32.6533C32.3478 32.2533 32.2362 31.8116 32.2362 31.3283C32.2362 30.9649 32.3012 30.6249 32.4312 30.3083C32.5612 29.9883 32.7395 29.7083 32.9662 29.4683C33.1962 29.2249 33.4628 29.0349 33.7662 28.8983C34.0695 28.7616 34.3928 28.6933 34.7362 28.6933C35.1262 28.6933 35.4828 28.7766 35.8062 28.9433C36.1328 29.1066 36.4095 29.3316 36.6362 29.6183C36.8628 29.9049 37.0278 30.2316 37.1312 30.5983C37.2345 30.9649 37.2578 31.3483 37.2012 31.7483H33.5462C33.5928 31.9349 33.6695 32.1033 33.7762 32.2533C33.8828 32.3999 34.0178 32.5183 34.1812 32.6083C34.3445 32.6949 34.5295 32.7399 34.7362 32.7433C34.9495 32.7466 35.1428 32.6966 35.3162 32.5933C35.4928 32.4866 35.6395 32.3433 35.7562 32.1633L37.0012 32.4533C36.7978 32.8966 36.4945 33.2599 36.0912 33.5433C35.6878 33.8233 35.2362 33.9633 34.7362 33.9633ZM33.5062 30.8333H35.9662C35.9295 30.6333 35.8512 30.4533 35.7312 30.2933C35.6145 30.1299 35.4695 29.9999 35.2962 29.9033C35.1228 29.8066 34.9362 29.7583 34.7362 29.7583C34.5362 29.7583 34.3512 29.8066 34.1812 29.9033C34.0112 29.9966 33.8662 30.1249 33.7462 30.2883C33.6295 30.4483 33.5495 30.6299 33.5062 30.8333Z" fill="#8354FF"/>
</svg>
