<svg width="50" height="50" viewBox="0 0 50 50" fill="none" xmlns="http://www.w3.org/2000/svg">
<path d="M25 13.5C23.4875 13.5 22.1927 12.9615 21.1156 11.8844C20.0385 10.8073 19.5 9.5125 19.5 8C19.5 6.4875 20.0385 5.19271 21.1156 4.11563C22.1927 3.03854 23.4875 2.5 25 2.5C26.5125 2.5 27.8073 3.03854 28.8844 4.11563C29.9615 5.19271 30.5 6.4875 30.5 8C30.5 9.5125 29.9615 10.8073 28.8844 11.8844C27.8073 12.9615 26.5125 13.5 25 13.5ZM14 24.5V20.65C14 19.8708 14.2008 19.1545 14.6023 18.5009C15.0038 17.8473 15.5363 17.3491 16.2 17.0063C17.6208 16.2958 19.0646 15.7628 20.5312 15.4071C21.9979 15.0515 23.4875 14.8741 25 14.875C26.5125 14.875 28.0021 15.0528 29.4687 15.4085C30.9354 15.7642 32.3792 16.2968 33.8 17.0063C34.4646 17.35 34.9976 17.8487 35.3991 18.5022C35.8006 19.1558 36.0009 19.8718 36 20.65V24.5H14Z" fill="#8354FF" stroke="#8354FF"/>
<path d="M7.06814 42.5L8.42814 35.5H9.43814L11.1431 39.985L12.8481 35.5H13.8581L15.2181 42.5H13.9731L13.1331 38.17L11.5581 42.34H10.7231L9.14814 38.17L8.31314 42.5H7.06814ZM18.8694 37.5H20.1644L17.4294 45H16.1344L17.0394 42.5L15.2394 37.5H16.5744L17.6494 40.83L18.8694 37.5ZM22.7484 42.5V35.5H25.2484C25.6284 35.5 25.9718 35.595 26.2784 35.785C26.5884 35.975 26.8334 36.23 27.0134 36.55C27.1934 36.87 27.2834 37.2217 27.2834 37.605C27.2834 37.9983 27.1901 38.355 27.0034 38.675C26.8201 38.9917 26.5734 39.245 26.2634 39.435C25.9534 39.6217 25.6151 39.715 25.2484 39.715H23.9684V42.5H22.7484ZM23.9684 38.495H25.1184C25.2918 38.495 25.4501 38.4517 25.5934 38.365C25.7368 38.2783 25.8501 38.1617 25.9334 38.015C26.0201 37.8683 26.0634 37.705 26.0634 37.525C26.0634 37.3417 26.0201 37.1767 25.9334 37.03C25.8501 36.8833 25.7368 36.7667 25.5934 36.68C25.4501 36.5933 25.2918 36.55 25.1184 36.55H23.9684V38.495ZM31.2179 37.5H32.4379V42.5H31.2179L31.1629 41.88C31.0262 42.1033 30.8445 42.285 30.6179 42.425C30.3945 42.5617 30.1295 42.63 29.8229 42.63C29.4529 42.63 29.1062 42.56 28.7829 42.42C28.4595 42.28 28.1745 42.0867 27.9279 41.84C27.6845 41.5933 27.4929 41.3083 27.3529 40.985C27.2162 40.6617 27.1479 40.315 27.1479 39.945C27.1479 39.5883 27.2129 39.2533 27.3429 38.94C27.4762 38.6267 27.6612 38.3517 27.8979 38.115C28.1345 37.8783 28.4079 37.6933 28.7179 37.56C29.0279 37.4267 29.3612 37.36 29.7179 37.36C30.0479 37.36 30.3429 37.4333 30.6029 37.58C30.8662 37.7267 31.0895 37.9133 31.2729 38.14L31.2179 37.5ZM29.7929 41.455C30.0529 41.455 30.2829 41.39 30.4829 41.26C30.6829 41.13 30.8395 40.955 30.9529 40.735C31.0662 40.5117 31.1229 40.2667 31.1229 40C31.1229 39.73 31.0662 39.485 30.9529 39.265C30.8395 39.0417 30.6812 38.865 30.4779 38.735C30.2779 38.605 30.0495 38.54 29.7929 38.54C29.5362 38.54 29.3012 38.6067 29.0879 38.74C28.8779 38.87 28.7095 39.045 28.5829 39.265C28.4595 39.485 28.3979 39.73 28.3979 40C28.3979 40.27 28.4612 40.515 28.5879 40.735C28.7145 40.955 28.8829 41.13 29.0929 41.26C29.3062 41.39 29.5395 41.455 29.7929 41.455ZM36.6385 37.5H37.8585V42.595C37.8585 42.955 37.7852 43.2817 37.6385 43.575C37.4919 43.8717 37.2919 44.125 37.0385 44.335C36.7852 44.5483 36.4952 44.7117 36.1685 44.825C35.8419 44.9417 35.4985 45 35.1385 45C34.7885 45 34.4519 44.9283 34.1285 44.785C33.8052 44.6417 33.5185 44.445 33.2685 44.195C33.0219 43.9483 32.8335 43.6667 32.7035 43.35L33.8185 42.845C33.8852 43.0283 33.9852 43.1883 34.1185 43.325C34.2552 43.465 34.4119 43.5733 34.5885 43.65C34.7652 43.73 34.9485 43.77 35.1385 43.77C35.3319 43.77 35.5169 43.7433 35.6935 43.69C35.8735 43.6367 36.0352 43.5583 36.1785 43.455C36.3219 43.355 36.4335 43.2317 36.5135 43.085C36.5969 42.9417 36.6385 42.7783 36.6385 42.595V41.89C36.4819 42.11 36.2852 42.2883 36.0485 42.425C35.8119 42.5617 35.5385 42.63 35.2285 42.63C34.8685 42.63 34.5319 42.5617 34.2185 42.425C33.9052 42.2883 33.6285 42.1 33.3885 41.86C33.1519 41.6167 32.9652 41.3367 32.8285 41.02C32.6952 40.7033 32.6285 40.3633 32.6285 40C32.6285 39.6367 32.6952 39.2967 32.8285 38.98C32.9652 38.6633 33.1519 38.385 33.3885 38.145C33.6285 37.9017 33.9052 37.7117 34.2185 37.575C34.5319 37.4383 34.8685 37.37 35.2285 37.37C35.5385 37.37 35.8119 37.4383 36.0485 37.575C36.2852 37.7083 36.4819 37.885 36.6385 38.105V37.5ZM35.2435 41.455C35.5002 41.455 35.7269 41.39 35.9235 41.26C36.1235 41.1267 36.2802 40.95 36.3935 40.73C36.5069 40.5067 36.5635 40.2633 36.5635 40C36.5635 39.7333 36.5052 39.49 36.3885 39.27C36.2752 39.05 36.1185 38.8733 35.9185 38.74C35.7219 38.6067 35.4969 38.54 35.2435 38.54C34.9935 38.54 34.7652 38.6067 34.5585 38.74C34.3519 38.87 34.1869 39.045 34.0635 39.265C33.9402 39.485 33.8785 39.73 33.8785 40C33.8785 40.27 33.9402 40.515 34.0635 40.735C34.1869 40.955 34.3519 41.13 34.5585 41.26C34.7652 41.39 34.9935 41.455 35.2435 41.455ZM40.7362 42.63C40.2762 42.63 39.8562 42.5117 39.4762 42.275C39.0995 42.0383 38.7978 41.72 38.5712 41.32C38.3478 40.92 38.2362 40.4783 38.2362 39.995C38.2362 39.6317 38.3012 39.2917 38.4312 38.975C38.5612 38.655 38.7395 38.375 38.9662 38.135C39.1962 37.8917 39.4628 37.7017 39.7662 37.565C40.0695 37.4283 40.3928 37.36 40.7362 37.36C41.1262 37.36 41.4828 37.4433 41.8062 37.61C42.1328 37.7733 42.4095 37.9983 42.6362 38.285C42.8628 38.5717 43.0278 38.8983 43.1312 39.265C43.2345 39.6317 43.2578 40.015 43.2012 40.415H39.5462C39.5928 40.6017 39.6695 40.77 39.7762 40.92C39.8828 41.0667 40.0178 41.185 40.1812 41.275C40.3445 41.3617 40.5295 41.4067 40.7362 41.41C40.9495 41.4133 41.1428 41.3633 41.3162 41.26C41.4928 41.1533 41.6395 41.01 41.7562 40.83L43.0012 41.12C42.7978 41.5633 42.4945 41.9267 42.0912 42.21C41.6878 42.49 41.2362 42.63 40.7362 42.63ZM39.5062 39.5H41.9662C41.9295 39.3 41.8512 39.12 41.7312 38.96C41.6145 38.7967 41.4695 38.6667 41.2962 38.57C41.1228 38.4733 40.9362 38.425 40.7362 38.425C40.5362 38.425 40.3512 38.4733 40.1812 38.57C40.0112 38.6633 39.8662 38.7917 39.7462 38.955C39.6295 39.115 39.5495 39.2967 39.5062 39.5Z" fill="#8354FF"/>
</svg>
