<svg width="52" height="52" viewBox="0 0 52 52" fill="none" xmlns="http://www.w3.org/2000/svg">
<circle cx="26" cy="26" r="26" fill="#DABEFF"/>
<path fill-rule="evenodd" clip-rule="evenodd" d="M20.9497 21.0503C20.646 21.354 20.646 21.8465 20.9497 22.1502L24.7995 26L20.9497 29.8498C20.646 30.1535 20.646 30.646 20.9497 30.9497C21.2534 31.2534 21.7459 31.2534 22.0496 30.9497L25.8994 27.0999L29.7493 30.9498C30.053 31.2535 30.5455 31.2535 30.8492 30.9498C31.153 30.646 31.153 30.1535 30.8492 29.8498L26.9994 26L30.8492 22.1501C31.1529 21.8464 31.1529 21.3539 30.8492 21.0502C30.5454 20.7465 30.053 20.7465 29.7492 21.0502L25.8994 24.9L22.0497 21.0503C21.7459 20.7465 21.2535 20.7465 20.9497 21.0503Z" fill="#8354FF"/>
</svg>
